# 3ds Max Wavefront OBJ Exporter v0.97b - (c)2007 guruware
# 创建的文件:10.07.2019 09:32:50

#
# object Leaf18
#

v  -0.0400 -0.0079 -0.0069
v  -0.0429 -0.0074 0.0213
v  -0.0225 0.0027 0.0003
v  -0.0231 -0.0063 0.0261
v  -0.0023 -0.0027 0.0033
v  -0.0015 -0.0157 0.0262
v  0.0165 0.0056 0.0007
v  0.0185 0.0012 0.0282
v  0.0343 0.0169 -0.0010
v  0.0388 0.0008 0.0240
v  -0.0424 -0.0092 0.0543
v  -0.0214 -0.0101 0.0553
v  0.0008 -0.0228 0.0503
v  0.0212 -0.0060 0.0520
v  0.0417 -0.0068 0.0459
v  -0.0397 -0.0257 0.0775
v  -0.0189 -0.0216 0.0789
v  0.0041 -0.0298 0.0747
v  0.0246 -0.0205 0.0737
v  0.0427 -0.0035 0.0736
v  -0.0392 -0.0313 0.1016
v  -0.0157 -0.0375 0.0997
v  0.0050 -0.0332 0.1004
v  0.0250 -0.0223 0.1018
v  0.0441 -0.0110 0.1019
v  -0.0359 -0.0407 0.1281
v  -0.0129 -0.0454 0.1249
v  0.0094 -0.0486 0.1212
v  0.0289 -0.0348 0.1236
v  0.0494 -0.0290 0.1211
v  -0.0316 -0.0540 0.1509
v  -0.0110 -0.0474 0.1522
v  0.0121 -0.0547 0.1461
v  0.0312 -0.0387 0.1493
v  0.0517 -0.0328 0.1468
v  -0.0272 -0.0683 0.1724
v  -0.0063 -0.0632 0.1728
v  0.0148 -0.0610 0.1710
v  0.0351 -0.0515 0.1714
v  0.0561 -0.0476 0.1684
v  -0.0232 -0.0815 0.1948
v  -0.0034 -0.0734 0.1962
v  0.0173 -0.0681 0.1955
v  0.0357 -0.0554 0.1973
v  0.0575 -0.0517 0.1940
v  -0.0221 -0.0922 0.2151
v  -0.0029 -0.0831 0.2185
v  0.0239 -0.0857 0.2151
v  0.0367 -0.0657 0.2223
v  0.0511 -0.0489 0.2271
v  -0.0182 -0.1031 0.2402
v  0.0021 -0.0956 0.2418
v  0.0266 -0.0960 0.2377
v  0.0410 -0.0773 0.2447
v  0.0607 -0.0684 0.2448
v  -0.0170 -0.1122 0.2608
v  0.0060 -0.1102 0.2607
v  0.0270 -0.1054 0.2617
v  0.0447 -0.0924 0.2672
v  0.0646 -0.0842 0.2689
v  -0.0156 -0.1179 0.2885
v  0.0060 -0.1146 0.2887
v  0.0291 -0.1172 0.2843
v  0.0482 -0.1052 0.2892
v  0.0683 -0.0972 0.2907
v  -0.0135 -0.1378 0.3035
v  0.0075 -0.1324 0.3064
v  0.0311 -0.1320 0.3049
v  0.0487 -0.1194 0.3120
v  0.0666 -0.1081 0.3175
v  -0.0120 -0.1549 0.3160
v  0.0091 -0.1507 0.3213
v  0.0307 -0.1479 0.3248
v  0.0448 -0.1320 0.3378
v  0.0623 -0.1217 0.3459
v  -0.0142 -0.1643 0.3460
v  0.0081 -0.1621 0.3472
v  0.0329 -0.1659 0.3428
v  0.0506 -0.1523 0.3526
v  0.0676 -0.1386 0.3619
v  -0.0105 -0.1798 0.3679
v  0.0107 -0.1742 0.3712
v  0.0335 -0.1796 0.3645
v  0.0550 -0.1724 0.3679
v  0.0761 -0.1663 0.3700
v  -0.0062 -0.2001 0.3901
v  0.0170 -0.2001 0.3845
v  0.0392 -0.1988 0.3798
v  0.0575 -0.1851 0.3890
v  0.0770 -0.1757 0.3927
v  0.0029 -0.2233 0.4063
v  0.0240 -0.2187 0.4031
v  0.0449 -0.2154 0.3980
v  0.0648 -0.2026 0.4043
v  0.0856 -0.1970 0.4007
v  0.0063 -0.2419 0.4145
v  0.0257 -0.2343 0.4204
v  0.0484 -0.2328 0.4166
v  0.0673 -0.2231 0.4243
v  0.0858 -0.2137 0.4311
v  0.0551 -0.2515 0.4327
# 101 vertices

vn -0.4961 0.8654 -0.0701
vn -0.2396 0.9651 0.1058
vn -0.1513 0.9671 0.2045
vn 0.1371 0.9615 0.2380
vn 0.0887 0.8951 0.4369
vn -0.0602 0.9445 0.3229
vn -0.4976 0.8216 0.2781
vn -0.3962 0.8661 0.3047
vn -0.2078 0.9047 0.3719
vn 0.1119 0.9215 0.3718
vn -0.0065 0.9646 0.2635
vn 0.2274 0.9219 0.3137
vn -0.0955 0.9430 0.3187
vn -0.2101 0.8894 0.4060
vn -0.1403 0.9461 0.2919
vn -0.1355 0.8957 0.4236
vn 0.1946 0.8930 0.4058
vn -0.1503 0.9269 0.3438
vn -0.4311 0.8724 0.2303
vn -0.6303 0.7722 0.0801
vn 0.1107 0.9206 0.3744
vn 0.1238 0.9224 0.3658
vn -0.2664 0.9110 0.3149
vn -0.5263 0.7815 0.3351
vn -0.3625 0.7868 0.4995
vn 0.2481 0.9074 0.3392
vn 0.0536 0.9518 0.3020
vn -0.1565 0.9041 0.3977
vn -0.4476 0.8011 0.3973
vn -0.2128 0.9095 0.3571
vn -0.1247 0.9107 0.3939
vn 0.0141 0.9297 0.3681
vn -0.2320 0.9229 0.3074
vn -0.4056 0.8607 0.3076
vn -0.1690 0.8889 0.4258
vn -0.2309 0.7852 0.5745
vn -0.0933 0.8769 0.4716
vn -0.3083 0.8866 0.3448
vn -0.3045 0.8753 0.3757
vn -0.1252 0.9447 0.3030
vn -0.3191 0.8272 0.4625
vn -0.2846 0.8759 0.3896
vn -0.3050 0.8515 0.4266
vn -0.4144 0.8543 0.3137
vn -0.3446 0.9299 0.1286
vn -0.4244 0.8077 0.4094
vn -0.1988 0.8564 0.4765
vn -0.3464 0.7811 0.5194
vn -0.7299 0.6258 0.2749
vn -0.6465 0.6645 0.3748
vn -0.3769 0.8162 0.4380
vn -0.0686 0.8597 0.5063
vn -0.4714 0.7686 0.4324
vn -0.6213 0.6029 0.5006
vn -0.3241 0.7013 0.6349
vn -0.1675 0.8933 0.4172
vn -0.1081 0.9277 0.3574
vn -0.4190 0.8262 0.3767
vn -0.4790 0.7155 0.5086
vn -0.3553 0.7705 0.5292
vn -0.1156 0.9041 0.4114
vn -0.0622 0.8513 0.5209
vn -0.2352 0.7921 0.5632
vn -0.4692 0.7282 0.4995
vn -0.4303 0.7888 0.4389
vn -0.2050 0.6087 0.7664
vn -0.0945 0.6756 0.7312
vn -0.3424 0.7266 0.5956
vn -0.6065 0.7086 0.3607
vn -0.5758 0.7675 0.2819
vn -0.2821 0.7213 0.6326
vn -0.1745 0.8159 0.5512
vn -0.4478 0.7305 0.5156
vn -0.6948 0.5542 0.4583
vn -0.6251 0.5313 0.5718
vn -0.1603 0.8911 0.4246
vn -0.0448 0.8638 0.5019
vn -0.2731 0.7302 0.6263
vn -0.5982 0.4429 0.6678
vn -0.5145 0.3432 0.7858
vn -0.2320 0.7819 0.5786
vn 0.0928 0.7461 0.6593
vn -0.0896 0.6649 0.7415
vn -0.4173 0.5393 0.7315
vn -0.3281 0.6709 0.6650
vn 0.0355 0.6122 0.7899
vn 0.1565 0.6170 0.7713
vn -0.2412 0.6630 0.7087
vn -0.5113 0.6228 0.5922
vn -0.2872 0.6108 0.7379
vn 0.0659 0.5817 0.8107
vn -0.0407 0.6798 0.7323
vn -0.2767 0.6506 0.7072
vn -0.3476 0.5408 0.7660
vn -0.1892 0.6479 0.7379
vn -0.2547 0.4103 0.8757
vn -0.1245 0.6172 0.7769
vn -0.3114 0.6225 0.7180
vn -0.4452 0.5931 0.6708
vn -0.5280 0.6059 0.5951
vn -0.3360 0.4372 0.8342
# 101 vertex normals

vt 1.0000 0.0000 0.0000
vt 1.0000 0.0500 0.0000
vt 0.7500 0.0000 0.0000
vt 0.7500 0.0500 0.0000
vt 0.5000 0.0000 0.0000
vt 0.5000 0.0500 0.0000
vt 0.2500 0.0000 0.0000
vt 0.2500 0.0500 0.0000
vt 0.0000 0.0000 0.0000
vt 0.0000 0.0500 0.0000
vt 1.0000 0.1000 0.0000
vt 0.7500 0.1000 0.0000
vt 0.5000 0.1000 0.0000
vt 0.2500 0.1000 0.0000
vt 0.0000 0.1000 0.0000
vt 1.0000 0.1500 0.0000
vt 0.7500 0.1500 0.0000
vt 0.5000 0.1500 0.0000
vt 0.2500 0.1500 0.0000
vt 0.0000 0.1500 0.0000
vt 1.0000 0.2000 0.0000
vt 0.7500 0.2000 0.0000
vt 0.5000 0.2000 0.0000
vt 0.2500 0.2000 0.0000
vt 0.0000 0.2000 0.0000
vt 1.0000 0.2500 0.0000
vt 0.7500 0.2500 0.0000
vt 0.5000 0.2500 0.0000
vt 0.2500 0.2500 0.0000
vt 0.0000 0.2500 0.0000
vt 1.0000 0.3000 0.0000
vt 0.7500 0.3000 0.0000
vt 0.5000 0.3000 0.0000
vt 0.2500 0.3000 0.0000
vt 0.0000 0.3000 0.0000
vt 1.0000 0.3500 0.0000
vt 0.7500 0.3500 0.0000
vt 0.5000 0.3500 0.0000
vt 0.2500 0.3500 0.0000
vt 0.0000 0.3500 0.0000
vt 1.0000 0.4000 0.0000
vt 0.7500 0.4000 0.0000
vt 0.5000 0.4000 0.0000
vt 0.2500 0.4000 0.0000
vt 0.0000 0.4000 0.0000
vt 1.0000 0.4500 0.0000
vt 0.7500 0.4500 0.0000
vt 0.5000 0.4500 0.0000
vt 0.2500 0.4500 0.0000
vt 0.0000 0.4500 0.0000
vt 1.0000 0.5000 0.0000
vt 0.7500 0.5000 0.0000
vt 0.5000 0.5000 0.0000
vt 0.2500 0.5000 0.0000
vt 0.0000 0.5000 0.0000
vt 1.0000 0.5500 0.0000
vt 0.7500 0.5500 0.0000
vt 0.5000 0.5500 0.0000
vt 0.2500 0.5500 0.0000
vt 0.0000 0.5500 0.0000
vt 1.0000 0.6000 0.0000
vt 0.7500 0.6000 0.0000
vt 0.5000 0.6000 0.0000
vt 0.2500 0.6000 0.0000
vt 0.0000 0.6000 0.0000
vt 1.0000 0.6500 0.0000
vt 0.7500 0.6500 0.0000
vt 0.5000 0.6500 0.0000
vt 0.2500 0.6500 0.0000
vt 0.0000 0.6500 0.0000
vt 1.0000 0.7000 0.0000
vt 0.7500 0.7000 0.0000
vt 0.5000 0.7000 0.0000
vt 0.2500 0.7000 0.0000
vt 0.0000 0.7000 0.0000
vt 1.0000 0.7500 0.0000
vt 0.7500 0.7500 0.0000
vt 0.5000 0.7500 0.0000
vt 0.2500 0.7500 0.0000
vt 0.0000 0.7500 0.0000
vt 1.0000 0.8000 0.0000
vt 0.7500 0.8000 0.0000
vt 0.5000 0.8000 0.0000
vt 0.2500 0.8000 0.0000
vt 0.0000 0.8000 0.0000
vt 1.0000 0.8500 0.0000
vt 0.7500 0.8500 0.0000
vt 0.5000 0.8500 0.0000
vt 0.2500 0.8500 0.0000
vt 0.0000 0.8500 0.0000
vt 1.0000 0.9000 0.0000
vt 0.7500 0.9000 0.0000
vt 0.5000 0.9000 0.0000
vt 0.2500 0.9000 0.0000
vt 0.0000 0.9000 0.0000
vt 1.0000 0.9500 0.0000
vt 0.7500 0.9500 0.0000
vt 0.5000 0.9500 0.0000
vt 0.2500 0.9500 0.0000
vt 0.0000 0.9500 0.0000
vt 0.5000 1.0000 0.0000
# 101 texture coords

g Leaf18
s 1
f 1/1/1 2/2/2 3/3/3 
f 3/3/3 2/2/2 4/4/4 
f 3/3/3 4/4/4 5/5/5 
f 5/5/5 4/4/4 6/6/6 
f 5/5/5 6/6/6 7/7/7 
f 7/7/7 6/6/6 8/8/8 
f 7/7/7 8/8/8 9/9/9 
f 9/9/9 8/8/8 10/10/10 
f 2/2/2 11/11/11 4/4/4 
f 4/4/4 11/11/11 12/12/12 
f 4/4/4 12/12/12 6/6/6 
f 6/6/6 12/12/12 13/13/13 
f 6/6/6 13/13/13 8/8/8 
f 8/8/8 13/13/13 14/14/14 
f 8/8/8 14/14/14 10/10/10 
f 10/10/10 14/14/14 15/15/15 
f 11/11/11 16/16/16 12/12/12 
f 12/12/12 16/16/16 17/17/17 
f 12/12/12 17/17/17 13/13/13 
f 13/13/13 17/17/17 18/18/18 
f 13/13/13 18/18/18 14/14/14 
f 14/14/14 18/18/18 19/19/19 
f 14/14/14 19/19/19 15/15/15 
f 15/15/15 19/19/19 20/20/20 
f 16/16/16 21/21/21 17/17/17 
f 17/17/17 21/21/21 22/22/22 
f 17/17/17 22/22/22 18/18/18 
f 18/18/18 22/22/22 23/23/23 
f 18/18/18 23/23/23 19/19/19 
f 19/19/19 23/23/23 24/24/24 
f 19/19/19 24/24/24 20/20/20 
f 20/20/20 24/24/24 25/25/25 
f 21/21/21 26/26/26 22/22/22 
f 22/22/22 26/26/26 27/27/27 
f 22/22/22 27/27/27 23/23/23 
f 23/23/23 27/27/27 28/28/28 
f 23/23/23 28/28/28 24/24/24 
f 24/24/24 28/28/28 29/29/29 
f 24/24/24 29/29/29 25/25/25 
f 25/25/25 29/29/29 30/30/30 
f 26/26/26 31/31/31 27/27/27 
f 27/27/27 31/31/31 32/32/32 
f 27/27/27 32/32/32 28/28/28 
f 28/28/28 32/32/32 33/33/33 
f 28/28/28 33/33/33 29/29/29 
f 29/29/29 33/33/33 34/34/34 
f 29/29/29 34/34/34 30/30/30 
f 30/30/30 34/34/34 35/35/35 
f 31/31/31 36/36/36 32/32/32 
f 32/32/32 36/36/36 37/37/37 
f 32/32/32 37/37/37 33/33/33 
f 33/33/33 37/37/37 38/38/38 
f 33/33/33 38/38/38 34/34/34 
f 34/34/34 38/38/38 39/39/39 
f 34/34/34 39/39/39 35/35/35 
f 35/35/35 39/39/39 40/40/40 
f 36/36/36 41/41/41 37/37/37 
f 37/37/37 41/41/41 42/42/42 
f 37/37/37 42/42/42 38/38/38 
f 38/38/38 42/42/42 43/43/43 
f 38/38/38 43/43/43 39/39/39 
f 39/39/39 43/43/43 44/44/44 
f 39/39/39 44/44/44 40/40/40 
f 40/40/40 44/44/44 45/45/45 
f 41/41/41 46/46/46 42/42/42 
f 42/42/42 46/46/46 47/47/47 
f 42/42/42 47/47/47 43/43/43 
f 43/43/43 47/47/47 48/48/48 
f 43/43/43 48/48/48 44/44/44 
f 44/44/44 48/48/48 49/49/49 
f 44/44/44 49/49/49 45/45/45 
f 45/45/45 49/49/49 50/50/50 
f 46/46/46 51/51/51 47/47/47 
f 47/47/47 51/51/51 52/52/52 
f 47/47/47 52/52/52 48/48/48 
f 48/48/48 52/52/52 53/53/53 
f 48/48/48 53/53/53 49/49/49 
f 49/49/49 53/53/53 54/54/54 
f 49/49/49 54/54/54 50/50/50 
f 50/50/50 54/54/54 55/55/55 
f 51/51/51 56/56/56 52/52/52 
f 52/52/52 56/56/56 57/57/57 
f 52/52/52 57/57/57 53/53/53 
f 53/53/53 57/57/57 58/58/58 
f 53/53/53 58/58/58 54/54/54 
f 54/54/54 58/58/58 59/59/59 
f 54/54/54 59/59/59 55/55/55 
f 55/55/55 59/59/59 60/60/60 
f 56/56/56 61/61/61 57/57/57 
f 57/57/57 61/61/61 62/62/62 
f 57/57/57 62/62/62 58/58/58 
f 58/58/58 62/62/62 63/63/63 
f 58/58/58 63/63/63 59/59/59 
f 59/59/59 63/63/63 64/64/64 
f 59/59/59 64/64/64 60/60/60 
f 60/60/60 64/64/64 65/65/65 
f 61/61/61 66/66/66 62/62/62 
f 62/62/62 66/66/66 67/67/67 
f 62/62/62 67/67/67 63/63/63 
f 63/63/63 67/67/67 68/68/68 
f 63/63/63 68/68/68 64/64/64 
f 64/64/64 68/68/68 69/69/69 
f 64/64/64 69/69/69 65/65/65 
f 65/65/65 69/69/69 70/70/70 
f 66/66/66 71/71/71 67/67/67 
f 67/67/67 71/71/71 72/72/72 
f 67/67/67 72/72/72 68/68/68 
f 68/68/68 72/72/72 73/73/73 
f 68/68/68 73/73/73 69/69/69 
f 69/69/69 73/73/73 74/74/74 
f 69/69/69 74/74/74 70/70/70 
f 70/70/70 74/74/74 75/75/75 
f 71/71/71 76/76/76 72/72/72 
f 72/72/72 76/76/76 77/77/77 
f 72/72/72 77/77/77 73/73/73 
f 73/73/73 77/77/77 78/78/78 
f 73/73/73 78/78/78 74/74/74 
f 74/74/74 78/78/78 79/79/79 
f 74/74/74 79/79/79 75/75/75 
f 75/75/75 79/79/79 80/80/80 
f 76/76/76 81/81/81 77/77/77 
f 77/77/77 81/81/81 82/82/82 
f 77/77/77 82/82/82 78/78/78 
f 78/78/78 82/82/82 83/83/83 
f 78/78/78 83/83/83 79/79/79 
f 79/79/79 83/83/83 84/84/84 
f 79/79/79 84/84/84 80/80/80 
f 80/80/80 84/84/84 85/85/85 
f 81/81/81 86/86/86 82/82/82 
f 82/82/82 86/86/86 87/87/87 
f 82/82/82 87/87/87 83/83/83 
f 83/83/83 87/87/87 88/88/88 
f 83/83/83 88/88/88 84/84/84 
f 84/84/84 88/88/88 89/89/89 
f 84/84/84 89/89/89 85/85/85 
f 85/85/85 89/89/89 90/90/90 
f 86/86/86 91/91/91 87/87/87 
f 87/87/87 91/91/91 92/92/92 
f 87/87/87 92/92/92 88/88/88 
f 88/88/88 92/92/92 93/93/93 
f 88/88/88 93/93/93 89/89/89 
f 89/89/89 93/93/93 94/94/94 
f 89/89/89 94/94/94 90/90/90 
f 90/90/90 94/94/94 95/95/95 
f 91/91/91 96/96/96 92/92/92 
f 92/92/92 96/96/96 97/97/97 
f 92/92/92 97/97/97 93/93/93 
f 93/93/93 97/97/97 98/98/98 
f 93/93/93 98/98/98 94/94/94 
f 94/94/94 98/98/98 99/99/99 
f 94/94/94 99/99/99 95/95/95 
f 95/95/95 99/99/99 100/100/100 
f 96/96/96 101/101/101 97/97/97 
f 97/97/97 101/101/101 98/98/98 
f 98/98/98 101/101/101 99/99/99 
f 99/99/99 101/101/101 100/100/100 
# 156 faces

