# Creator xfrog, (c) 1997-2002 by Greenworks, Lintermann und Deussen GdBR (see http://www.greenworks.de)
# "date: ÖÜÒ», 21 1ÔÂ 2019 20:23:32"

mtllib leaf - mature.mtl


# vertices 101

# triangles 156

v -0.0241209 0.00168769 -0.0221631
vn 0.0333899 0.994035 0.103822
vt 1 0
v -0.011925 0.000780182 -0.0173966
vn -0.015283 0.999798 -0.0130168
vt 0.75 0
v 0 -0.00170093 -0.0132039
vn 0.417805 0.877609 0.235035
vt 0.5 0
v 0.012467 -0.00128141 -0.0182256
vn -0.417954 0.900538 0.119774
vt 0.25 0
v 0.024663 0.00529041 -0.0213289
vn 0.0547736 0.992497 0.109312
vt 0 0
v -0.025517 -0.00143219 0.00815693
vn -0.220034 0.974433 0.0454358
vt 1 0.05
v -0.0129443 0.00304921 0.0139261
vn 0.156599 0.98334 0.0922978
vt 0.75 0.05
v 0 -0.0143128 0.0124651
vn 0.234279 0.947822 0.216212
vt 0.5 0.05
v 0.013513 0.00206993 0.0134984
vn -0.317913 0.93805 0.137818
vt 0.25 0.05
v 0.0260688 -0.00517416 0.00704706
vn 0.279663 0.951478 0.128369
vt 0 0.05
v -0.0261189 -0.00503227 0.0366145
vn -0.347499 0.93338 0.0896955
vt 1 0.1
v -0.0131046 -0.000772673 0.0406172
vn 0.441136 0.872574 0.209796
vt 0.75 0.1
v 6.72271e-005 -0.0174453 0.0410462
vn -0.183093 0.978637 0.0935204
vt 0.5 0.1
v 0.0138057 -0.00559397 0.0400875
vn -0.214503 0.961658 0.170888
vt 0.25 0.1
v 0.0267816 4.04718e-005 0.0366442
vn -0.370461 0.910841 0.182011
vt 0 0.1
v -0.0259856 -0.00594694 0.0675922
vn 0.296021 0.888546 0.350511
vt 1 0.15
v -0.0129189 -0.0165075 0.0680592
vn 0.190975 0.949934 0.247293
vt 0.75 0.15
v 0.000402175 -0.0124363 0.0700281
vn -0.0208658 0.978587 0.204774
vt 0.5 0.15
v 0.0141166 -0.0165843 0.0676824
vn -0.173084 0.943803 0.281563
vt 0.25 0.15
v 0.0274305 -0.0104073 0.0658835
vn -0.372663 0.916367 0.146266
vt 0 0.15
v -0.0267719 -0.0232645 0.0926798
vn -0.0112182 0.973403 0.228823
vt 1 0.2
v -0.0136057 -0.0196411 0.0971248
vn 0.117785 0.944959 0.305251
vt 0.75 0.2
v -0.000164383 -0.0266606 0.0953262
vn -0.0137355 0.938921 0.34386
vt 0.5 0.2
v 0.0134243 -0.0180521 0.0982872
vn -0.409035 0.895636 0.17472
vt 0.25 0.2
v 0.0267016 -0.0133833 0.0978888
vn -0.422033 0.885293 0.195307
vt 0 0.2
v -0.028853 -0.0246546 0.123638
vn 0.334508 0.855791 0.394623
vt 1 0.25
v -0.0143861 -0.035448 0.120871
vn 0.198726 0.885043 0.42096
vt 0.75 0.25
v -0.00143651 -0.0329969 0.123426
vn -0.17377 0.88997 0.421613
vt 0.5 0.25
v 0.0121161 -0.0294392 0.124952
vn -0.489948 0.797142 0.352868
vt 0.25 0.25
v 0.0247094 -0.0200501 0.127997
vn -0.358063 0.834803 0.418204
vt 0 0.25
v -0.028885 -0.0442186 0.145711
vn 0.142399 0.861557 0.487281
vt 1 0.3
v -0.0155776 -0.0443052 0.14859
vn 0.195319 0.826303 0.528275
vt 0.75 0.3
v -0.00212242 -0.0536571 0.14373
vn -0.0175656 0.770098 0.637684
vt 0.5 0.3
v 0.0113321 -0.0402944 0.153043
vn -0.450469 0.729777 0.514299
vt 0.25 0.3
v 0.0249594 -0.0430795 0.14989
vn 0.0877022 0.790179 0.606569
vt 0 0.3
v -0.0299931 -0.0596856 0.170827
vn 0.157683 0.781251 0.603973
vt 1 0.35
v -0.016329 -0.0640671 0.169673
vn 0.43068 0.677713 0.596004
vt 0.75 0.35
v -0.00264207 -0.0708936 0.165228
vn -0.282518 0.805083 0.52156
vt 0.5 0.35
v 0.0103833 -0.0594923 0.174457
vn -0.455784 0.768162 0.449654
vt 0.25 0.35
v 0.0236353 -0.0551738 0.176581
vn -0.140069 0.828983 0.54145
vt 0 0.35
v -0.0309788 -0.0779347 0.194359
vn 0.340163 0.660021 0.669822
vt 1 0.4
v -0.0163103 -0.0830288 0.191213
vn 0.107642 0.779356 0.617267
vt 0.75 0.4
v -0.00324997 -0.0817337 0.192807
vn -0.368875 0.767851 0.523772
vt 0.5 0.4
v 0.00896755 -0.0736127 0.199486
vn -0.311449 0.696648 0.646282
vt 0.25 0.4
v 0.0233175 -0.0756794 0.195542
vn 0.19698 0.667851 0.717756
vt 0 0.4
v -0.0298117 -0.102228 0.209798
vn -0.11685 0.750002 0.651033
vt 1 0.45
v -0.0170438 -0.0995213 0.213995
vn 0.0270525 0.746133 0.665247
vt 0.75 0.45
v -0.00264266 -0.103227 0.211043
vn -0.224587 0.646107 0.729456
vt 0.5 0.45
v 0.00952324 -0.0959391 0.217394
vn -0.317626 0.681442 0.659356
vt 0.25 0.45
v 0.0232722 -0.0952 0.216471
vn 0.100422 0.761151 0.640753
vt 0 0.45
v -0.0293028 -0.117626 0.235744
vn 0.139516 0.723641 0.675928
vt 1 0.5
v -0.0145013 -0.122178 0.2321
vn 0.186489 0.71179 0.677183
vt 0.75 0.5
v -0.000919102 -0.122532 0.231287
vn -0.353887 0.719761 0.59725
vt 0.5 0.5
v 0.0105506 -0.111369 0.239773
vn -0.277807 0.708948 0.648241
vt 0.25 0.5
v 0.0249856 -0.113484 0.235444
vn 0.175645 0.709857 0.682093
vt 0 0.5
v -0.0284191 -0.138041 0.253182
vn 0.081954 0.698554 0.710849
vt 1 0.55
v -0.014949 -0.138242 0.254597
vn 0.0284305 0.713419 0.70016
vt 0.75 0.55
v -0.00161739 -0.139928 0.25343
vn -0.300928 0.675249 0.67341
vt 0.5 0.55
v 0.0118932 -0.134512 0.259043
vn -0.16851 0.638711 0.750768
vt 0.25 0.55
v 0.0253741 -0.133152 0.259268
vn -0.244412 0.674004 0.697124
vt 0 0.55
v -0.0270987 -0.161805 0.271576
vn -0.0650812 0.646938 0.75976
vt 1 0.6
v -0.0135694 -0.161456 0.272365
vn -0.0778405 0.685175 0.724207
vt 0.75 0.6
v -0.000465337 -0.159649 0.274274
vn -0.0711635 0.597812 0.798471
vt 0.5 0.6
v 0.013274 -0.15787 0.275
vn -0.344936 0.510854 0.787431
vt 0.25 0.6
v 0.0262075 -0.15183 0.280994
vn -0.340456 0.518141 0.784615
vt 0 0.6
v -0.0217784 -0.185416 0.296853
vn -0.0622667 0.559133 0.826736
vt 1 0.65
v -0.00823056 -0.183748 0.296946
vn 0.142288 0.47741 0.867084
vt 0.75 0.65
v 0.00406752 -0.186035 0.283876
vn 0.202919 0.358785 0.911097
vt 0.5 0.65
v 0.0183888 -0.179989 0.293253
vn -0.388589 0.330936 0.85993
vt 0.25 0.65
v 0.0314753 -0.177622 0.290305
vn -0.0339756 0.393633 0.91864
vt 0 0.65
v -0.0194073 -0.21358 0.301004
vn -0.272487 0.149082 0.950539
vt 1 0.7
v -0.00560374 -0.212867 0.306827
vn 0.417385 0.0782724 0.905353
vt 0.75 0.7
v 0.00696808 -0.211153 0.288995
vn -0.081758 0.148879 0.98547
vt 0.5 0.7
v 0.02128 -0.209556 0.303187
vn -0.474968 0.201804 0.856551
vt 0.25 0.7
v 0.0348802 -0.20729 0.308541
vn -0.262966 0.168297 0.950013
vt 0 0.7
v -0.0169606 -0.244889 0.303042
vn 0.181328 -0.051512 0.982073
vt 1 0.75
v -0.00285916 -0.24052 0.296339
vn 0.473885 -0.0501505 0.879157
vt 0.75 0.75
v 0.0105758 -0.238817 0.295646
vn -0.307005 -0.0944277 0.947012
vt 0.5 0.75
v 0.0238938 -0.242908 0.307092
vn -0.388193 -0.199894 0.899638
vt 0.25 0.75
v 0.0375032 -0.240402 0.307024
vn 0.0395862 -0.259981 0.964802
vt 0 0.75
v -0.006803 -0.282789 0.30271
vn 0.769847 -0.0997397 0.630387
vt 1 0.8
v 0.00260561 -0.268867 0.289389
vn 0.484209 -0.324546 0.812534
vt 0.75 0.8
v 0.0150668 -0.264064 0.286592
vn -0.021673 -0.548858 0.835635
vt 0.5 0.8
v 0.032004 -0.269668 0.295914
vn -0.16597 -0.688886 0.705613
vt 0.25 0.8
v 0.0455686 -0.26675 0.296576
vn 0.139908 -0.802525 0.579983
vt 0 0.8
v -0.00661233 -0.298708 0.275157
vn 0.471618 -0.592691 0.652912
vt 1 0.85
v 0.00746806 -0.296713 0.27332
vn 0.70938 -0.448392 0.543806
vt 0.75 0.85
v 0.0119521 -0.279065 0.264937
vn 0.439397 -0.749334 0.495408
vt 0.5 0.85
v 0.028967 -0.280992 0.265796
vn 0.193138 -0.932619 0.304826
vt 0.25 0.85
v 0.0431491 -0.278601 0.265192
vn 0.223355 -0.96301 0.150746
vt 0 0.85
v 0.00670919 -0.320955 0.246345
vn 0.8094 -0.519765 0.273344
vt 1 0.9
v 0.0114432 -0.306185 0.243175
vn 0.919276 -0.38151 0.0968599
vt 0.75 0.9
v 0.0193379 -0.29518 0.241289
vn 0.681372 -0.704634 0.198051
vt 0.5 0.9
v 0.0278905 -0.28394 0.239809
vn 0.479195 -0.864087 0.154032
vt 0.25 0.9
v 0.0420547 -0.279127 0.240241
vn 0.33195 -0.915145 0.228733
vt 0 0.9
v 0.00143943 -0.321229 0.21683
vn 0.922967 -0.38057 -0.0574242
vt 1 0.95
v 0.00739604 -0.307669 0.214668
vn 0.809951 -0.586304 -0.0150817
vt 0.75 0.95
v 0.0171434 -0.298838 0.213416
vn 0.585446 -0.805827 0.0888621
vt 0.5 0.95
v 0.0309439 -0.293689 0.212956
vn 0.351842 -0.910228 0.218384
vt 0.25 0.95
v 0.044057 -0.288178 0.21284
vn 0.383345 -0.908645 0.165562
vt 0 0.95
v 0.0130767 -0.301539 0.185871
vn 0.613747 -0.788824 0.0327313
vt 0.5 1
g Leaf1
usemtl Default_Leaf1
f 1/1/1 6/6/6 2/2/2
f 2/2/2 6/6/6 7/7/7
f 2/2/2 7/7/7 3/3/3
f 3/3/3 7/7/7 8/8/8
f 3/3/3 8/8/8 4/4/4
f 4/4/4 8/8/8 9/9/9
f 4/4/4 9/9/9 5/5/5
f 5/5/5 9/9/9 10/10/10
f 6/6/6 11/11/11 7/7/7
f 7/7/7 11/11/11 12/12/12
f 7/7/7 12/12/12 8/8/8
f 8/8/8 12/12/12 13/13/13
f 8/8/8 13/13/13 9/9/9
f 9/9/9 13/13/13 14/14/14
f 9/9/9 14/14/14 10/10/10
f 10/10/10 14/14/14 15/15/15
f 11/11/11 16/16/16 12/12/12
f 12/12/12 16/16/16 17/17/17
f 12/12/12 17/17/17 13/13/13
f 13/13/13 17/17/17 18/18/18
f 13/13/13 18/18/18 14/14/14
f 14/14/14 18/18/18 19/19/19
f 14/14/14 19/19/19 15/15/15
f 15/15/15 19/19/19 20/20/20
f 16/16/16 21/21/21 17/17/17
f 17/17/17 21/21/21 22/22/22
f 17/17/17 22/22/22 18/18/18
f 18/18/18 22/22/22 23/23/23
f 18/18/18 23/23/23 19/19/19
f 19/19/19 23/23/23 24/24/24
f 19/19/19 24/24/24 20/20/20
f 20/20/20 24/24/24 25/25/25
f 21/21/21 26/26/26 22/22/22
f 22/22/22 26/26/26 27/27/27
f 22/22/22 27/27/27 23/23/23
f 23/23/23 27/27/27 28/28/28
f 23/23/23 28/28/28 24/24/24
f 24/24/24 28/28/28 29/29/29
f 24/24/24 29/29/29 25/25/25
f 25/25/25 29/29/29 30/30/30
f 26/26/26 31/31/31 27/27/27
f 27/27/27 31/31/31 32/32/32
f 27/27/27 32/32/32 28/28/28
f 28/28/28 32/32/32 33/33/33
f 28/28/28 33/33/33 29/29/29
f 29/29/29 33/33/33 34/34/34
f 29/29/29 34/34/34 30/30/30
f 30/30/30 34/34/34 35/35/35
f 31/31/31 36/36/36 32/32/32
f 32/32/32 36/36/36 37/37/37
f 32/32/32 37/37/37 33/33/33
f 33/33/33 37/37/37 38/38/38
f 33/33/33 38/38/38 34/34/34
f 34/34/34 38/38/38 39/39/39
f 34/34/34 39/39/39 35/35/35
f 35/35/35 39/39/39 40/40/40
f 36/36/36 41/41/41 37/37/37
f 37/37/37 41/41/41 42/42/42
f 37/37/37 42/42/42 38/38/38
f 38/38/38 42/42/42 43/43/43
f 38/38/38 43/43/43 39/39/39
f 39/39/39 43/43/43 44/44/44
f 39/39/39 44/44/44 40/40/40
f 40/40/40 44/44/44 45/45/45
f 41/41/41 46/46/46 42/42/42
f 42/42/42 46/46/46 47/47/47
f 42/42/42 47/47/47 43/43/43
f 43/43/43 47/47/47 48/48/48
f 43/43/43 48/48/48 44/44/44
f 44/44/44 48/48/48 49/49/49
f 44/44/44 49/49/49 45/45/45
f 45/45/45 49/49/49 50/50/50
f 46/46/46 51/51/51 47/47/47
f 47/47/47 51/51/51 52/52/52
f 47/47/47 52/52/52 48/48/48
f 48/48/48 52/52/52 53/53/53
f 48/48/48 53/53/53 49/49/49
f 49/49/49 53/53/53 54/54/54
f 49/49/49 54/54/54 50/50/50
f 50/50/50 54/54/54 55/55/55
f 51/51/51 56/56/56 52/52/52
f 52/52/52 56/56/56 57/57/57
f 52/52/52 57/57/57 53/53/53
f 53/53/53 57/57/57 58/58/58
f 53/53/53 58/58/58 54/54/54
f 54/54/54 58/58/58 59/59/59
f 54/54/54 59/59/59 55/55/55
f 55/55/55 59/59/59 60/60/60
f 56/56/56 61/61/61 57/57/57
f 57/57/57 61/61/61 62/62/62
f 57/57/57 62/62/62 58/58/58
f 58/58/58 62/62/62 63/63/63
f 58/58/58 63/63/63 59/59/59
f 59/59/59 63/63/63 64/64/64
f 59/59/59 64/64/64 60/60/60
f 60/60/60 64/64/64 65/65/65
f 61/61/61 66/66/66 62/62/62
f 62/62/62 66/66/66 67/67/67
f 62/62/62 67/67/67 63/63/63
f 63/63/63 67/67/67 68/68/68
f 63/63/63 68/68/68 64/64/64
f 64/64/64 68/68/68 69/69/69
f 64/64/64 69/69/69 65/65/65
f 65/65/65 69/69/69 70/70/70
f 66/66/66 71/71/71 67/67/67
f 67/67/67 71/71/71 72/72/72
f 67/67/67 72/72/72 68/68/68
f 68/68/68 72/72/72 73/73/73
f 68/68/68 73/73/73 69/69/69
f 69/69/69 73/73/73 74/74/74
f 69/69/69 74/74/74 70/70/70
f 70/70/70 74/74/74 75/75/75
f 71/71/71 76/76/76 72/72/72
f 72/72/72 76/76/76 77/77/77
f 72/72/72 77/77/77 73/73/73
f 73/73/73 77/77/77 78/78/78
f 73/73/73 78/78/78 74/74/74
f 74/74/74 78/78/78 79/79/79
f 74/74/74 79/79/79 75/75/75
f 75/75/75 79/79/79 80/80/80
f 76/76/76 81/81/81 77/77/77
f 77/77/77 81/81/81 82/82/82
f 77/77/77 82/82/82 78/78/78
f 78/78/78 82/82/82 83/83/83
f 78/78/78 83/83/83 79/79/79
f 79/79/79 83/83/83 84/84/84
f 79/79/79 84/84/84 80/80/80
f 80/80/80 84/84/84 85/85/85
f 81/81/81 86/86/86 82/82/82
f 82/82/82 86/86/86 87/87/87
f 82/82/82 87/87/87 83/83/83
f 83/83/83 87/87/87 88/88/88
f 83/83/83 88/88/88 84/84/84
f 84/84/84 88/88/88 89/89/89
f 84/84/84 89/89/89 85/85/85
f 85/85/85 89/89/89 90/90/90
f 86/86/86 91/91/91 87/87/87
f 87/87/87 91/91/91 92/92/92
f 87/87/87 92/92/92 88/88/88
f 88/88/88 92/92/92 93/93/93
f 88/88/88 93/93/93 89/89/89
f 89/89/89 93/93/93 94/94/94
f 89/89/89 94/94/94 90/90/90
f 90/90/90 94/94/94 95/95/95
f 91/91/91 96/96/96 92/92/92
f 92/92/92 96/96/96 97/97/97
f 92/92/92 97/97/97 93/93/93
f 93/93/93 97/97/97 98/98/98
f 93/93/93 98/98/98 94/94/94
f 94/94/94 98/98/98 99/99/99
f 94/94/94 99/99/99 95/95/95
f 95/95/95 99/99/99 100/100/100
f 96/96/96 101/101/101 97/97/97
f 97/97/97 101/101/101 98/98/98
f 98/98/98 101/101/101 99/99/99
f 99/99/99 101/101/101 100/100/100
