# 3ds Max Wavefront OBJ Exporter v0.97b - (c)2007 guruware
# 创建的文件:08.07.2019 10:53:35

#
# object Leaf128
#

v  -0.0400 -0.0079 -0.0069
v  -0.0429 -0.0072 0.0214
v  -0.0225 0.0027 0.0003
v  -0.0231 -0.0062 0.0262
v  -0.0023 -0.0027 0.0033
v  -0.0015 -0.0157 0.0261
v  0.0165 0.0056 0.0007
v  0.0185 0.0012 0.0286
v  0.0343 0.0169 -0.0010
v  0.0388 0.0008 0.0243
v  -0.0424 -0.0099 0.0550
v  -0.0213 -0.0109 0.0558
v  0.0008 -0.0232 0.0499
v  0.0212 -0.0066 0.0524
v  0.0417 -0.0070 0.0461
v  -0.0395 -0.0278 0.0779
v  -0.0186 -0.0238 0.0792
v  0.0042 -0.0316 0.0737
v  0.0248 -0.0222 0.0731
v  0.0429 -0.0052 0.0743
v  -0.0383 -0.0359 0.1021
v  -0.0149 -0.0417 0.0983
v  0.0057 -0.0375 0.0990
v  0.0258 -0.0269 0.1013
v  0.0449 -0.0157 0.1025
v  -0.0340 -0.0499 0.1279
v  -0.0112 -0.0536 0.1223
v  0.0108 -0.0556 0.1166
v  0.0305 -0.0427 0.1209
v  0.0509 -0.0364 0.1187
v  -0.0281 -0.0688 0.1476
v  -0.0074 -0.0627 0.1492
v  0.0149 -0.0673 0.1390
v  0.0344 -0.0530 0.1455
v  0.0548 -0.0464 0.1433
v  -0.0220 -0.0898 0.1634
v  -0.0011 -0.0849 0.1634
v  0.0197 -0.0816 0.1601
v  0.0402 -0.0727 0.1621
v  0.0608 -0.0673 0.1585
v  -0.0156 -0.1116 0.1775
v  0.0046 -0.1047 0.1799
v  0.0251 -0.0991 0.1788
v  0.0443 -0.0886 0.1843
v  0.0654 -0.0828 0.1800
v  -0.0119 -0.1315 0.1885
v  0.0082 -0.1254 0.1932
v  0.0336 -0.1235 0.1839
v  0.0490 -0.1122 0.1997
v  0.0654 -0.1017 0.2114
v  -0.0041 -0.1559 0.1995
v  0.0167 -0.1502 0.2015
v  0.0396 -0.1452 0.1932
v  0.0571 -0.1366 0.2083
v  0.0771 -0.1290 0.2105
v  0.0006 -0.1776 0.2060
v  0.0230 -0.1735 0.2020
v  0.0441 -0.1691 0.2014
v  0.0641 -0.1640 0.2108
v  0.0847 -0.1584 0.2135
v  0.0082 -0.2051 0.2156
v  0.0293 -0.2003 0.2131
v  0.0499 -0.1940 0.2032
v  0.0713 -0.1898 0.2109
v  0.0921 -0.1843 0.2135
v  0.0111 -0.2278 0.2038
v  0.0327 -0.2245 0.2042
v  0.0548 -0.2184 0.1981
v  0.0755 -0.2172 0.2073
v  0.0959 -0.2149 0.2148
v  0.0129 -0.2454 0.1912
v  0.0349 -0.2444 0.1912
v  0.0569 -0.2421 0.1894
v  0.0766 -0.2474 0.2034
v  0.0973 -0.2487 0.2106
v  0.0177 -0.2776 0.1871
v  0.0394 -0.2725 0.1843
v  0.0606 -0.2620 0.1750
v  0.0826 -0.2651 0.1848
v  0.1040 -0.2679 0.1948
v  0.0245 -0.3002 0.1716
v  0.0465 -0.2971 0.1724
v  0.0646 -0.2840 0.1628
v  0.0872 -0.2809 0.1651
v  0.1088 -0.2765 0.1664
v  0.0307 -0.3205 0.1493
v  0.0505 -0.3080 0.1452
v  0.0700 -0.2968 0.1423
v  0.0930 -0.3007 0.1503
v  0.1145 -0.2988 0.1547
v  0.0379 -0.3313 0.1235
v  0.0577 -0.3221 0.1234
v  0.0764 -0.3110 0.1227
v  0.1001 -0.3121 0.1288
v  0.1198 -0.3028 0.1299
v  0.0379 -0.3358 0.1029
v  0.0595 -0.3361 0.1042
v  0.0797 -0.3253 0.1015
v  0.1019 -0.3278 0.1044
v  0.1236 -0.3296 0.1074
v  0.0848 -0.3347 0.0784
# 101 vertices

vn -0.4948 0.8659 -0.0740
vn -0.2375 0.9649 0.1123
vn -0.1489 0.9681 0.2017
vn 0.1389 0.9584 0.2493
vn 0.0902 0.8951 0.4366
vn -0.0596 0.9407 0.3339
vn -0.4980 0.8215 0.2777
vn -0.3975 0.8628 0.3123
vn -0.2104 0.9057 0.3680
vn 0.1073 0.9181 0.3817
vn -0.0036 0.9559 0.2936
vn 0.2315 0.9089 0.3469
vn -0.0942 0.9302 0.3547
vn -0.2106 0.8731 0.4397
vn -0.1408 0.9330 0.3311
vn -0.1276 0.8670 0.4817
vn 0.2055 0.8600 0.4672
vn -0.1443 0.8980 0.4156
vn -0.4259 0.8519 0.3046
vn -0.6289 0.7618 0.1554
vn 0.1267 0.8721 0.4726
vn 0.1388 0.8690 0.4750
vn -0.2529 0.8634 0.4366
vn -0.5170 0.7301 0.4468
vn -0.3492 0.7115 0.6098
vn 0.2689 0.8323 0.4847
vn 0.0755 0.8722 0.4833
vn -0.1334 0.8067 0.5756
vn -0.4225 0.7070 0.5672
vn -0.1941 0.8119 0.5506
vn -0.0833 0.7712 0.6311
vn 0.0581 0.7860 0.6155
vn -0.1975 0.7953 0.5732
vn -0.3728 0.7329 0.5692
vn -0.1276 0.7202 0.6819
vn -0.1540 0.5231 0.8382
vn -0.0196 0.6271 0.7787
vn -0.2493 0.6776 0.6919
vn -0.2409 0.6555 0.7158
vn -0.0726 0.7357 0.6734
vn -0.2210 0.5063 0.8336
vn -0.1868 0.5635 0.8047
vn -0.2009 0.5178 0.8315
vn -0.3287 0.5696 0.7533
vn -0.2728 0.7102 0.6491
vn -0.2979 0.4056 0.8642
vn -0.0519 0.3918 0.9186
vn -0.1951 0.2938 0.9357
vn -0.6250 0.2913 0.7243
vn -0.5195 0.2415 0.8196
vn -0.2100 0.2749 0.9383
vn 0.1165 0.2593 0.9587
vn -0.3013 0.2091 0.9303
vn -0.4496 0.0344 0.8925
vn -0.1223 0.0166 0.9924
vn 0.0359 0.2258 0.9735
vn 0.0880 0.2709 0.9586
vn -0.2213 0.1648 0.9612
vn -0.2632 -0.0082 0.9647
vn -0.1291 0.0003 0.9916
vn 0.1179 0.1112 0.9868
vn 0.1937 -0.0184 0.9809
vn 0.0258 -0.1071 0.9939
vn -0.2220 -0.1209 0.9675
vn -0.1828 -0.0599 0.9813
vn 0.1025 -0.4531 0.8855
vn 0.2165 -0.3999 0.8906
vn -0.0475 -0.3076 0.9503
vn -0.3580 -0.1581 0.9202
vn -0.3349 -0.0891 0.9380
vn 0.0344 -0.4258 0.9042
vn 0.1316 -0.3265 0.9360
vn -0.1474 -0.3745 0.9154
vn -0.4349 -0.4273 0.7926
vn -0.3422 -0.5380 0.7704
vn 0.1367 -0.2847 0.9488
vn 0.2666 -0.3512 0.8975
vn 0.0567 -0.5444 0.8369
vn -0.2929 -0.7101 0.6404
vn -0.2007 -0.8292 0.5217
vn 0.1118 -0.5616 0.8198
vn 0.4371 -0.5610 0.7030
vn 0.2686 -0.6960 0.6659
vn -0.0631 -0.7877 0.6129
vn 0.0348 -0.7111 0.7022
vn 0.4032 -0.7523 0.5211
vn 0.5129 -0.7050 0.4898
vn 0.1380 -0.7688 0.6244
vn -0.1562 -0.7432 0.6506
vn 0.0915 -0.8197 0.5654
vn 0.4414 -0.7941 0.4178
vn 0.3502 -0.7671 0.5375
vn 0.1184 -0.8179 0.5631
vn 0.0407 -0.8830 0.4675
vn 0.2104 -0.8204 0.5316
vn 0.1265 -0.9584 0.2558
vn 0.2791 -0.8546 0.4379
vn 0.0918 -0.8609 0.5003
vn -0.0510 -0.8571 0.5126
vn -0.1434 -0.8191 0.5555
vn 0.0502 -0.9611 0.2716
# 101 vertex normals

vt 1.0000 0.0000 0.0000
vt 1.0000 0.0500 0.0000
vt 0.7500 0.0000 0.0000
vt 0.7500 0.0500 0.0000
vt 0.5000 0.0000 0.0000
vt 0.5000 0.0500 0.0000
vt 0.2500 0.0000 0.0000
vt 0.2500 0.0500 0.0000
vt 0.0000 0.0000 0.0000
vt 0.0000 0.0500 0.0000
vt 1.0000 0.1000 0.0000
vt 0.7500 0.1000 0.0000
vt 0.5000 0.1000 0.0000
vt 0.2500 0.1000 0.0000
vt 0.0000 0.1000 0.0000
vt 1.0000 0.1500 0.0000
vt 0.7500 0.1500 0.0000
vt 0.5000 0.1500 0.0000
vt 0.2500 0.1500 0.0000
vt 0.0000 0.1500 0.0000
vt 1.0000 0.2000 0.0000
vt 0.7500 0.2000 0.0000
vt 0.5000 0.2000 0.0000
vt 0.2500 0.2000 0.0000
vt 0.0000 0.2000 0.0000
vt 1.0000 0.2500 0.0000
vt 0.7500 0.2500 0.0000
vt 0.5000 0.2500 0.0000
vt 0.2500 0.2500 0.0000
vt 0.0000 0.2500 0.0000
vt 1.0000 0.3000 0.0000
vt 0.7500 0.3000 0.0000
vt 0.5000 0.3000 0.0000
vt 0.2500 0.3000 0.0000
vt 0.0000 0.3000 0.0000
vt 1.0000 0.3500 0.0000
vt 0.7500 0.3500 0.0000
vt 0.5000 0.3500 0.0000
vt 0.2500 0.3500 0.0000
vt 0.0000 0.3500 0.0000
vt 1.0000 0.4000 0.0000
vt 0.7500 0.4000 0.0000
vt 0.5000 0.4000 0.0000
vt 0.2500 0.4000 0.0000
vt 0.0000 0.4000 0.0000
vt 1.0000 0.4500 0.0000
vt 0.7500 0.4500 0.0000
vt 0.5000 0.4500 0.0000
vt 0.2500 0.4500 0.0000
vt 0.0000 0.4500 0.0000
vt 1.0000 0.5000 0.0000
vt 0.7500 0.5000 0.0000
vt 0.5000 0.5000 0.0000
vt 0.2500 0.5000 0.0000
vt 0.0000 0.5000 0.0000
vt 1.0000 0.5500 0.0000
vt 0.7500 0.5500 0.0000
vt 0.5000 0.5500 0.0000
vt 0.2500 0.5500 0.0000
vt 0.0000 0.5500 0.0000
vt 1.0000 0.6000 0.0000
vt 0.7500 0.6000 0.0000
vt 0.5000 0.6000 0.0000
vt 0.2500 0.6000 0.0000
vt 0.0000 0.6000 0.0000
vt 1.0000 0.6500 0.0000
vt 0.7500 0.6500 0.0000
vt 0.5000 0.6500 0.0000
vt 0.2500 0.6500 0.0000
vt 0.0000 0.6500 0.0000
vt 1.0000 0.7000 0.0000
vt 0.7500 0.7000 0.0000
vt 0.5000 0.7000 0.0000
vt 0.2500 0.7000 0.0000
vt 0.0000 0.7000 0.0000
vt 1.0000 0.7500 0.0000
vt 0.7500 0.7500 0.0000
vt 0.5000 0.7500 0.0000
vt 0.2500 0.7500 0.0000
vt 0.0000 0.7500 0.0000
vt 1.0000 0.8000 0.0000
vt 0.7500 0.8000 0.0000
vt 0.5000 0.8000 0.0000
vt 0.2500 0.8000 0.0000
vt 0.0000 0.8000 0.0000
vt 1.0000 0.8500 0.0000
vt 0.7500 0.8500 0.0000
vt 0.5000 0.8500 0.0000
vt 0.2500 0.8500 0.0000
vt 0.0000 0.8500 0.0000
vt 1.0000 0.9000 0.0000
vt 0.7500 0.9000 0.0000
vt 0.5000 0.9000 0.0000
vt 0.2500 0.9000 0.0000
vt 0.0000 0.9000 0.0000
vt 1.0000 0.9500 0.0000
vt 0.7500 0.9500 0.0000
vt 0.5000 0.9500 0.0000
vt 0.2500 0.9500 0.0000
vt 0.0000 0.9500 0.0000
vt 0.5000 1.0000 0.0000
# 101 texture coords

g Leaf128
s 1
f 1/1/1 2/2/2 3/3/3 
f 3/3/3 2/2/2 4/4/4 
f 3/3/3 4/4/4 5/5/5 
f 5/5/5 4/4/4 6/6/6 
f 5/5/5 6/6/6 7/7/7 
f 7/7/7 6/6/6 8/8/8 
f 7/7/7 8/8/8 9/9/9 
f 9/9/9 8/8/8 10/10/10 
f 2/2/2 11/11/11 4/4/4 
f 4/4/4 11/11/11 12/12/12 
f 4/4/4 12/12/12 6/6/6 
f 6/6/6 12/12/12 13/13/13 
f 6/6/6 13/13/13 8/8/8 
f 8/8/8 13/13/13 14/14/14 
f 8/8/8 14/14/14 10/10/10 
f 10/10/10 14/14/14 15/15/15 
f 11/11/11 16/16/16 12/12/12 
f 12/12/12 16/16/16 17/17/17 
f 12/12/12 17/17/17 13/13/13 
f 13/13/13 17/17/17 18/18/18 
f 13/13/13 18/18/18 14/14/14 
f 14/14/14 18/18/18 19/19/19 
f 14/14/14 19/19/19 15/15/15 
f 15/15/15 19/19/19 20/20/20 
f 16/16/16 21/21/21 17/17/17 
f 17/17/17 21/21/21 22/22/22 
f 17/17/17 22/22/22 18/18/18 
f 18/18/18 22/22/22 23/23/23 
f 18/18/18 23/23/23 19/19/19 
f 19/19/19 23/23/23 24/24/24 
f 19/19/19 24/24/24 20/20/20 
f 20/20/20 24/24/24 25/25/25 
f 21/21/21 26/26/26 22/22/22 
f 22/22/22 26/26/26 27/27/27 
f 22/22/22 27/27/27 23/23/23 
f 23/23/23 27/27/27 28/28/28 
f 23/23/23 28/28/28 24/24/24 
f 24/24/24 28/28/28 29/29/29 
f 24/24/24 29/29/29 25/25/25 
f 25/25/25 29/29/29 30/30/30 
f 26/26/26 31/31/31 27/27/27 
f 27/27/27 31/31/31 32/32/32 
f 27/27/27 32/32/32 28/28/28 
f 28/28/28 32/32/32 33/33/33 
f 28/28/28 33/33/33 29/29/29 
f 29/29/29 33/33/33 34/34/34 
f 29/29/29 34/34/34 30/30/30 
f 30/30/30 34/34/34 35/35/35 
f 31/31/31 36/36/36 32/32/32 
f 32/32/32 36/36/36 37/37/37 
f 32/32/32 37/37/37 33/33/33 
f 33/33/33 37/37/37 38/38/38 
f 33/33/33 38/38/38 34/34/34 
f 34/34/34 38/38/38 39/39/39 
f 34/34/34 39/39/39 35/35/35 
f 35/35/35 39/39/39 40/40/40 
f 36/36/36 41/41/41 37/37/37 
f 37/37/37 41/41/41 42/42/42 
f 37/37/37 42/42/42 38/38/38 
f 38/38/38 42/42/42 43/43/43 
f 38/38/38 43/43/43 39/39/39 
f 39/39/39 43/43/43 44/44/44 
f 39/39/39 44/44/44 40/40/40 
f 40/40/40 44/44/44 45/45/45 
f 41/41/41 46/46/46 42/42/42 
f 42/42/42 46/46/46 47/47/47 
f 42/42/42 47/47/47 43/43/43 
f 43/43/43 47/47/47 48/48/48 
f 43/43/43 48/48/48 44/44/44 
f 44/44/44 48/48/48 49/49/49 
f 44/44/44 49/49/49 45/45/45 
f 45/45/45 49/49/49 50/50/50 
f 46/46/46 51/51/51 47/47/47 
f 47/47/47 51/51/51 52/52/52 
f 47/47/47 52/52/52 48/48/48 
f 48/48/48 52/52/52 53/53/53 
f 48/48/48 53/53/53 49/49/49 
f 49/49/49 53/53/53 54/54/54 
f 49/49/49 54/54/54 50/50/50 
f 50/50/50 54/54/54 55/55/55 
f 51/51/51 56/56/56 52/52/52 
f 52/52/52 56/56/56 57/57/57 
f 52/52/52 57/57/57 53/53/53 
f 53/53/53 57/57/57 58/58/58 
f 53/53/53 58/58/58 54/54/54 
f 54/54/54 58/58/58 59/59/59 
f 54/54/54 59/59/59 55/55/55 
f 55/55/55 59/59/59 60/60/60 
f 56/56/56 61/61/61 57/57/57 
f 57/57/57 61/61/61 62/62/62 
f 57/57/57 62/62/62 58/58/58 
f 58/58/58 62/62/62 63/63/63 
f 58/58/58 63/63/63 59/59/59 
f 59/59/59 63/63/63 64/64/64 
f 59/59/59 64/64/64 60/60/60 
f 60/60/60 64/64/64 65/65/65 
f 61/61/61 66/66/66 62/62/62 
f 62/62/62 66/66/66 67/67/67 
f 62/62/62 67/67/67 63/63/63 
f 63/63/63 67/67/67 68/68/68 
f 63/63/63 68/68/68 64/64/64 
f 64/64/64 68/68/68 69/69/69 
f 64/64/64 69/69/69 65/65/65 
f 65/65/65 69/69/69 70/70/70 
f 66/66/66 71/71/71 67/67/67 
f 67/67/67 71/71/71 72/72/72 
f 67/67/67 72/72/72 68/68/68 
f 68/68/68 72/72/72 73/73/73 
f 68/68/68 73/73/73 69/69/69 
f 69/69/69 73/73/73 74/74/74 
f 69/69/69 74/74/74 70/70/70 
f 70/70/70 74/74/74 75/75/75 
f 71/71/71 76/76/76 72/72/72 
f 72/72/72 76/76/76 77/77/77 
f 72/72/72 77/77/77 73/73/73 
f 73/73/73 77/77/77 78/78/78 
f 73/73/73 78/78/78 74/74/74 
f 74/74/74 78/78/78 79/79/79 
f 74/74/74 79/79/79 75/75/75 
f 75/75/75 79/79/79 80/80/80 
f 76/76/76 81/81/81 77/77/77 
f 77/77/77 81/81/81 82/82/82 
f 77/77/77 82/82/82 78/78/78 
f 78/78/78 82/82/82 83/83/83 
f 78/78/78 83/83/83 79/79/79 
f 79/79/79 83/83/83 84/84/84 
f 79/79/79 84/84/84 80/80/80 
f 80/80/80 84/84/84 85/85/85 
f 81/81/81 86/86/86 82/82/82 
f 82/82/82 86/86/86 87/87/87 
f 82/82/82 87/87/87 83/83/83 
f 83/83/83 87/87/87 88/88/88 
f 83/83/83 88/88/88 84/84/84 
f 84/84/84 88/88/88 89/89/89 
f 84/84/84 89/89/89 85/85/85 
f 85/85/85 89/89/89 90/90/90 
f 86/86/86 91/91/91 87/87/87 
f 87/87/87 91/91/91 92/92/92 
f 87/87/87 92/92/92 88/88/88 
f 88/88/88 92/92/92 93/93/93 
f 88/88/88 93/93/93 89/89/89 
f 89/89/89 93/93/93 94/94/94 
f 89/89/89 94/94/94 90/90/90 
f 90/90/90 94/94/94 95/95/95 
f 91/91/91 96/96/96 92/92/92 
f 92/92/92 96/96/96 97/97/97 
f 92/92/92 97/97/97 93/93/93 
f 93/93/93 97/97/97 98/98/98 
f 93/93/93 98/98/98 94/94/94 
f 94/94/94 98/98/98 99/99/99 
f 94/94/94 99/99/99 95/95/95 
f 95/95/95 99/99/99 100/100/100 
f 96/96/96 101/101/101 97/97/97 
f 97/97/97 101/101/101 98/98/98 
f 98/98/98 101/101/101 99/99/99 
f 99/99/99 101/101/101 100/100/100 
# 156 faces

