# 3ds Max Wavefront OBJ Exporter v0.97b - (c)2007 guruware
# 创建的文件:08.07.2019 14:33:04

#
# object Leaf163
#

v  -0.0400 -0.0079 -0.0069
v  -0.0432 -0.0055 0.0208
v  -0.0225 0.0027 0.0003
v  -0.0234 -0.0051 0.0259
v  -0.0023 -0.0027 0.0033
v  -0.0021 -0.0153 0.0263
v  0.0165 0.0056 0.0007
v  0.0184 0.0009 0.0287
v  0.0343 0.0169 -0.0010
v  0.0387 -0.0002 0.0247
v  -0.0390 -0.0123 0.0610
v  -0.0180 -0.0128 0.0586
v  0.0032 -0.0241 0.0487
v  0.0235 -0.0071 0.0494
v  0.0428 -0.0065 0.0402
v  -0.0314 -0.0319 0.0840
v  -0.0110 -0.0263 0.0816
v  0.0109 -0.0322 0.0718
v  0.0302 -0.0213 0.0677
v  0.0468 -0.0029 0.0659
v  -0.0270 -0.0419 0.1063
v  -0.0043 -0.0455 0.0982
v  0.0159 -0.0397 0.0960
v  0.0355 -0.0280 0.0965
v  0.0539 -0.0156 0.0960
v  -0.0141 -0.0628 0.1322
v  0.0063 -0.0619 0.1201
v  0.0258 -0.0594 0.1086
v  0.0449 -0.0450 0.1109
v  0.0633 -0.0355 0.1051
v  0.0008 -0.0875 0.1465
v  0.0199 -0.0779 0.1434
v  0.0372 -0.0744 0.1256
v  0.0564 -0.0589 0.1302
v  0.0737 -0.0477 0.1240
v  0.0157 -0.1131 0.1515
v  0.0339 -0.1030 0.1465
v  0.0508 -0.0930 0.1380
v  0.0692 -0.0802 0.1366
v  0.0856 -0.0684 0.1289
v  0.0311 -0.1381 0.1501
v  0.0491 -0.1265 0.1489
v  0.0658 -0.1141 0.1441
v  0.0840 -0.1011 0.1474
v  0.0997 -0.0870 0.1402
v  0.0396 -0.1581 0.1452
v  0.0591 -0.1491 0.1458
v  0.0770 -0.1339 0.1322
v  0.0972 -0.1283 0.1456
v  0.1163 -0.1207 0.1551
v  0.0555 -0.1819 0.1331
v  0.0737 -0.1703 0.1317
v  0.0884 -0.1524 0.1224
v  0.1103 -0.1475 0.1326
v  0.1279 -0.1350 0.1329
v  0.0627 -0.1991 0.1213
v  0.0795 -0.1850 0.1142
v  0.0970 -0.1731 0.1098
v  0.1187 -0.1669 0.1126
v  0.1374 -0.1563 0.1114
v  0.0772 -0.2222 0.1046
v  0.0931 -0.2082 0.0997
v  0.1045 -0.1892 0.0914
v  0.1261 -0.1810 0.0926
v  0.1444 -0.1694 0.0917
v  0.0740 -0.2299 0.0800
v  0.0925 -0.2188 0.0762
v  0.1078 -0.2020 0.0697
v  0.1301 -0.1975 0.0709
v  0.1511 -0.1915 0.0717
v  0.0692 -0.2349 0.0610
v  0.0884 -0.2260 0.0547
v  0.1064 -0.2151 0.0479
v  0.1310 -0.2187 0.0491
v  0.1525 -0.2154 0.0472
v  0.0781 -0.2579 0.0346
v  0.0948 -0.2435 0.0303
v  0.1071 -0.2222 0.0236
v  0.1311 -0.2194 0.0250
v  0.1548 -0.2168 0.0270
v  0.0854 -0.2675 0.0080
v  0.1038 -0.2552 0.0064
v  0.1118 -0.2329 0.0008
v  0.1313 -0.2209 0.0003
v  0.1492 -0.2079 -0.0003
v  0.0904 -0.2720 -0.0242
v  0.1024 -0.2514 -0.0246
v  0.1148 -0.2324 -0.0243
v  0.1388 -0.2280 -0.0208
v  0.1584 -0.2184 -0.0179
v  0.0958 -0.2685 -0.0536
v  0.1097 -0.2519 -0.0511
v  0.1218 -0.2339 -0.0486
v  0.1445 -0.2261 -0.0439
v  0.1585 -0.2097 -0.0403
v  0.0914 -0.2667 -0.0710
v  0.1114 -0.2585 -0.0716
v  0.1253 -0.2401 -0.0734
v  0.1469 -0.2338 -0.0731
v  0.1678 -0.2272 -0.0725
v  0.1314 -0.2412 -0.0982
# 101 vertices

vn -0.4740 0.8706 -0.1318
vn -0.2178 0.9694 0.1134
vn -0.1277 0.9791 0.1584
vn 0.1555 0.9512 0.2666
vn 0.0985 0.9036 0.4169
vn -0.0355 0.9349 0.3530
vn -0.4895 0.8279 0.2739
vn -0.3693 0.8547 0.3647
vn -0.1965 0.9037 0.3805
vn 0.1338 0.9057 0.4022
vn 0.0253 0.9359 0.3512
vn 0.2616 0.8970 0.3564
vn -0.0709 0.9176 0.3912
vn -0.1734 0.8560 0.4870
vn -0.1427 0.9267 0.3477
vn -0.0902 0.8375 0.5390
vn 0.2344 0.8446 0.4813
vn -0.1280 0.8721 0.4723
vn -0.4291 0.8169 0.3853
vn -0.6581 0.7095 0.2518
vn 0.1576 0.8218 0.5476
vn 0.1705 0.8121 0.5580
vn -0.2185 0.7905 0.5722
vn -0.4769 0.6327 0.6101
vn -0.2681 0.5980 0.7553
vn 0.3168 0.7614 0.5656
vn 0.1291 0.7635 0.6328
vn -0.0546 0.6643 0.7455
vn -0.3224 0.5323 0.7828
vn -0.1304 0.6589 0.7408
vn 0.0612 0.5603 0.8260
vn 0.1969 0.5947 0.7795
vn -0.0805 0.5816 0.8095
vn -0.2471 0.4986 0.8309
vn 0.0164 0.4977 0.8672
vn 0.1421 0.1706 0.9750
vn 0.2336 0.2924 0.9273
vn -0.0336 0.3272 0.9444
vn -0.0260 0.3165 0.9483
vn 0.0701 0.4414 0.8946
vn 0.1361 0.0066 0.9907
vn 0.1405 0.0674 0.9878
vn 0.1290 0.0410 0.9908
vn -0.0563 0.1096 0.9924
vn -0.0677 0.2654 0.9618
vn 0.1155 -0.2223 0.9681
vn 0.3553 -0.1798 0.9173
vn 0.2375 -0.2981 0.9245
vn -0.2386 -0.3504 0.9057
vn -0.0748 -0.4381 0.8958
vn 0.2631 -0.3938 0.8807
vn 0.5665 -0.3026 0.7665
vn 0.1953 -0.4864 0.8517
vn 0.0628 -0.6476 0.7594
vn 0.4022 -0.5934 0.6972
vn 0.5188 -0.3859 0.7629
vn 0.5564 -0.3273 0.7637
vn 0.2971 -0.5192 0.8013
vn 0.2782 -0.6690 0.6893
vn 0.4148 -0.6340 0.6527
vn 0.6190 -0.4413 0.6497
vn 0.6883 -0.4979 0.5276
vn 0.5567 -0.6337 0.5371
vn 0.3319 -0.7282 0.5997
vn 0.3588 -0.6636 0.6564
vn 0.5841 -0.7888 0.1913
vn 0.6710 -0.7067 0.2245
vn 0.4635 -0.7657 0.4460
vn 0.1561 -0.7409 0.6532
vn 0.1661 -0.6808 0.7134
vn 0.5135 -0.7916 0.3311
vn 0.5991 -0.6797 0.4232
vn 0.3529 -0.8008 0.4839
vn 0.0573 -0.9012 0.4296
vn 0.1501 -0.9464 0.2860
vn 0.5922 -0.5911 0.5477
vn 0.6932 -0.5542 0.4608
vn 0.5320 -0.7767 0.3373
vn 0.1837 -0.9757 0.1195
vn 0.2612 -0.9624 -0.0750
vn 0.5801 -0.7187 0.3832
vn 0.8199 -0.5223 0.2345
vn 0.7043 -0.6927 0.1557
vn 0.4153 -0.9036 0.1046
vn 0.5025 -0.8278 0.2496
vn 0.7821 -0.6196 0.0664
vn 0.8507 -0.5203 0.0747
vn 0.5804 -0.7904 0.1960
vn 0.3221 -0.9084 0.2664
vn 0.5445 -0.8260 0.1460
vn 0.8039 -0.5944 0.0195
vn 0.7357 -0.6543 0.1752
vn 0.5521 -0.8089 0.2021
vn 0.4848 -0.8689 0.1001
vn 0.6265 -0.7562 0.1888
vn 0.5305 -0.8428 -0.0910
vn 0.6572 -0.7380 0.1529
vn 0.5005 -0.8332 0.2350
vn 0.3719 -0.8932 0.2528
vn 0.2789 -0.9079 0.3130
vn 0.4540 -0.8905 0.0304
# 101 vertex normals

vt 1.0000 0.0000 0.0000
vt 1.0000 0.0500 0.0000
vt 0.7500 0.0000 0.0000
vt 0.7500 0.0500 0.0000
vt 0.5000 0.0000 0.0000
vt 0.5000 0.0500 0.0000
vt 0.2500 0.0000 0.0000
vt 0.2500 0.0500 0.0000
vt 0.0000 0.0000 0.0000
vt 0.0000 0.0500 0.0000
vt 1.0000 0.1000 0.0000
vt 0.7500 0.1000 0.0000
vt 0.5000 0.1000 0.0000
vt 0.2500 0.1000 0.0000
vt 0.0000 0.1000 0.0000
vt 1.0000 0.1500 0.0000
vt 0.7500 0.1500 0.0000
vt 0.5000 0.1500 0.0000
vt 0.2500 0.1500 0.0000
vt 0.0000 0.1500 0.0000
vt 1.0000 0.2000 0.0000
vt 0.7500 0.2000 0.0000
vt 0.5000 0.2000 0.0000
vt 0.2500 0.2000 0.0000
vt 0.0000 0.2000 0.0000
vt 1.0000 0.2500 0.0000
vt 0.7500 0.2500 0.0000
vt 0.5000 0.2500 0.0000
vt 0.2500 0.2500 0.0000
vt 0.0000 0.2500 0.0000
vt 1.0000 0.3000 0.0000
vt 0.7500 0.3000 0.0000
vt 0.5000 0.3000 0.0000
vt 0.2500 0.3000 0.0000
vt 0.0000 0.3000 0.0000
vt 1.0000 0.3500 0.0000
vt 0.7500 0.3500 0.0000
vt 0.5000 0.3500 0.0000
vt 0.2500 0.3500 0.0000
vt 0.0000 0.3500 0.0000
vt 1.0000 0.4000 0.0000
vt 0.7500 0.4000 0.0000
vt 0.5000 0.4000 0.0000
vt 0.2500 0.4000 0.0000
vt 0.0000 0.4000 0.0000
vt 1.0000 0.4500 0.0000
vt 0.7500 0.4500 0.0000
vt 0.5000 0.4500 0.0000
vt 0.2500 0.4500 0.0000
vt 0.0000 0.4500 0.0000
vt 1.0000 0.5000 0.0000
vt 0.7500 0.5000 0.0000
vt 0.5000 0.5000 0.0000
vt 0.2500 0.5000 0.0000
vt 0.0000 0.5000 0.0000
vt 1.0000 0.5500 0.0000
vt 0.7500 0.5500 0.0000
vt 0.5000 0.5500 0.0000
vt 0.2500 0.5500 0.0000
vt 0.0000 0.5500 0.0000
vt 1.0000 0.6000 0.0000
vt 0.7500 0.6000 0.0000
vt 0.5000 0.6000 0.0000
vt 0.2500 0.6000 0.0000
vt 0.0000 0.6000 0.0000
vt 1.0000 0.6500 0.0000
vt 0.7500 0.6500 0.0000
vt 0.5000 0.6500 0.0000
vt 0.2500 0.6500 0.0000
vt 0.0000 0.6500 0.0000
vt 1.0000 0.7000 0.0000
vt 0.7500 0.7000 0.0000
vt 0.5000 0.7000 0.0000
vt 0.2500 0.7000 0.0000
vt 0.0000 0.7000 0.0000
vt 1.0000 0.7500 0.0000
vt 0.7500 0.7500 0.0000
vt 0.5000 0.7500 0.0000
vt 0.2500 0.7500 0.0000
vt 0.0000 0.7500 0.0000
vt 1.0000 0.8000 0.0000
vt 0.7500 0.8000 0.0000
vt 0.5000 0.8000 0.0000
vt 0.2500 0.8000 0.0000
vt 0.0000 0.8000 0.0000
vt 1.0000 0.8500 0.0000
vt 0.7500 0.8500 0.0000
vt 0.5000 0.8500 0.0000
vt 0.2500 0.8500 0.0000
vt 0.0000 0.8500 0.0000
vt 1.0000 0.9000 0.0000
vt 0.7500 0.9000 0.0000
vt 0.5000 0.9000 0.0000
vt 0.2500 0.9000 0.0000
vt 0.0000 0.9000 0.0000
vt 1.0000 0.9500 0.0000
vt 0.7500 0.9500 0.0000
vt 0.5000 0.9500 0.0000
vt 0.2500 0.9500 0.0000
vt 0.0000 0.9500 0.0000
vt 0.5000 1.0000 0.0000
# 101 texture coords

g Leaf163
s 1
f 1/1/1 2/2/2 3/3/3 
f 3/3/3 2/2/2 4/4/4 
f 3/3/3 4/4/4 5/5/5 
f 5/5/5 4/4/4 6/6/6 
f 5/5/5 6/6/6 7/7/7 
f 7/7/7 6/6/6 8/8/8 
f 7/7/7 8/8/8 9/9/9 
f 9/9/9 8/8/8 10/10/10 
f 2/2/2 11/11/11 4/4/4 
f 4/4/4 11/11/11 12/12/12 
f 4/4/4 12/12/12 6/6/6 
f 6/6/6 12/12/12 13/13/13 
f 6/6/6 13/13/13 8/8/8 
f 8/8/8 13/13/13 14/14/14 
f 8/8/8 14/14/14 10/10/10 
f 10/10/10 14/14/14 15/15/15 
f 11/11/11 16/16/16 12/12/12 
f 12/12/12 16/16/16 17/17/17 
f 12/12/12 17/17/17 13/13/13 
f 13/13/13 17/17/17 18/18/18 
f 13/13/13 18/18/18 14/14/14 
f 14/14/14 18/18/18 19/19/19 
f 14/14/14 19/19/19 15/15/15 
f 15/15/15 19/19/19 20/20/20 
f 16/16/16 21/21/21 17/17/17 
f 17/17/17 21/21/21 22/22/22 
f 17/17/17 22/22/22 18/18/18 
f 18/18/18 22/22/22 23/23/23 
f 18/18/18 23/23/23 19/19/19 
f 19/19/19 23/23/23 24/24/24 
f 19/19/19 24/24/24 20/20/20 
f 20/20/20 24/24/24 25/25/25 
f 21/21/21 26/26/26 22/22/22 
f 22/22/22 26/26/26 27/27/27 
f 22/22/22 27/27/27 23/23/23 
f 23/23/23 27/27/27 28/28/28 
f 23/23/23 28/28/28 24/24/24 
f 24/24/24 28/28/28 29/29/29 
f 24/24/24 29/29/29 25/25/25 
f 25/25/25 29/29/29 30/30/30 
f 26/26/26 31/31/31 27/27/27 
f 27/27/27 31/31/31 32/32/32 
f 27/27/27 32/32/32 28/28/28 
f 28/28/28 32/32/32 33/33/33 
f 28/28/28 33/33/33 29/29/29 
f 29/29/29 33/33/33 34/34/34 
f 29/29/29 34/34/34 30/30/30 
f 30/30/30 34/34/34 35/35/35 
f 31/31/31 36/36/36 32/32/32 
f 32/32/32 36/36/36 37/37/37 
f 32/32/32 37/37/37 33/33/33 
f 33/33/33 37/37/37 38/38/38 
f 33/33/33 38/38/38 34/34/34 
f 34/34/34 38/38/38 39/39/39 
f 34/34/34 39/39/39 35/35/35 
f 35/35/35 39/39/39 40/40/40 
f 36/36/36 41/41/41 37/37/37 
f 37/37/37 41/41/41 42/42/42 
f 37/37/37 42/42/42 38/38/38 
f 38/38/38 42/42/42 43/43/43 
f 38/38/38 43/43/43 39/39/39 
f 39/39/39 43/43/43 44/44/44 
f 39/39/39 44/44/44 40/40/40 
f 40/40/40 44/44/44 45/45/45 
f 41/41/41 46/46/46 42/42/42 
f 42/42/42 46/46/46 47/47/47 
f 42/42/42 47/47/47 43/43/43 
f 43/43/43 47/47/47 48/48/48 
f 43/43/43 48/48/48 44/44/44 
f 44/44/44 48/48/48 49/49/49 
f 44/44/44 49/49/49 45/45/45 
f 45/45/45 49/49/49 50/50/50 
f 46/46/46 51/51/51 47/47/47 
f 47/47/47 51/51/51 52/52/52 
f 47/47/47 52/52/52 48/48/48 
f 48/48/48 52/52/52 53/53/53 
f 48/48/48 53/53/53 49/49/49 
f 49/49/49 53/53/53 54/54/54 
f 49/49/49 54/54/54 50/50/50 
f 50/50/50 54/54/54 55/55/55 
f 51/51/51 56/56/56 52/52/52 
f 52/52/52 56/56/56 57/57/57 
f 52/52/52 57/57/57 53/53/53 
f 53/53/53 57/57/57 58/58/58 
f 53/53/53 58/58/58 54/54/54 
f 54/54/54 58/58/58 59/59/59 
f 54/54/54 59/59/59 55/55/55 
f 55/55/55 59/59/59 60/60/60 
f 56/56/56 61/61/61 57/57/57 
f 57/57/57 61/61/61 62/62/62 
f 57/57/57 62/62/62 58/58/58 
f 58/58/58 62/62/62 63/63/63 
f 58/58/58 63/63/63 59/59/59 
f 59/59/59 63/63/63 64/64/64 
f 59/59/59 64/64/64 60/60/60 
f 60/60/60 64/64/64 65/65/65 
f 61/61/61 66/66/66 62/62/62 
f 62/62/62 66/66/66 67/67/67 
f 62/62/62 67/67/67 63/63/63 
f 63/63/63 67/67/67 68/68/68 
f 63/63/63 68/68/68 64/64/64 
f 64/64/64 68/68/68 69/69/69 
f 64/64/64 69/69/69 65/65/65 
f 65/65/65 69/69/69 70/70/70 
f 66/66/66 71/71/71 67/67/67 
f 67/67/67 71/71/71 72/72/72 
f 67/67/67 72/72/72 68/68/68 
f 68/68/68 72/72/72 73/73/73 
f 68/68/68 73/73/73 69/69/69 
f 69/69/69 73/73/73 74/74/74 
f 69/69/69 74/74/74 70/70/70 
f 70/70/70 74/74/74 75/75/75 
f 71/71/71 76/76/76 72/72/72 
f 72/72/72 76/76/76 77/77/77 
f 72/72/72 77/77/77 73/73/73 
f 73/73/73 77/77/77 78/78/78 
f 73/73/73 78/78/78 74/74/74 
f 74/74/74 78/78/78 79/79/79 
f 74/74/74 79/79/79 75/75/75 
f 75/75/75 79/79/79 80/80/80 
f 76/76/76 81/81/81 77/77/77 
f 77/77/77 81/81/81 82/82/82 
f 77/77/77 82/82/82 78/78/78 
f 78/78/78 82/82/82 83/83/83 
f 78/78/78 83/83/83 79/79/79 
f 79/79/79 83/83/83 84/84/84 
f 79/79/79 84/84/84 80/80/80 
f 80/80/80 84/84/84 85/85/85 
f 81/81/81 86/86/86 82/82/82 
f 82/82/82 86/86/86 87/87/87 
f 82/82/82 87/87/87 83/83/83 
f 83/83/83 87/87/87 88/88/88 
f 83/83/83 88/88/88 84/84/84 
f 84/84/84 88/88/88 89/89/89 
f 84/84/84 89/89/89 85/85/85 
f 85/85/85 89/89/89 90/90/90 
f 86/86/86 91/91/91 87/87/87 
f 87/87/87 91/91/91 92/92/92 
f 87/87/87 92/92/92 88/88/88 
f 88/88/88 92/92/92 93/93/93 
f 88/88/88 93/93/93 89/89/89 
f 89/89/89 93/93/93 94/94/94 
f 89/89/89 94/94/94 90/90/90 
f 90/90/90 94/94/94 95/95/95 
f 91/91/91 96/96/96 92/92/92 
f 92/92/92 96/96/96 97/97/97 
f 92/92/92 97/97/97 93/93/93 
f 93/93/93 97/97/97 98/98/98 
f 93/93/93 98/98/98 94/94/94 
f 94/94/94 98/98/98 99/99/99 
f 94/94/94 99/99/99 95/95/95 
f 95/95/95 99/99/99 100/100/100 
f 96/96/96 101/101/101 97/97/97 
f 97/97/97 101/101/101 98/98/98 
f 98/98/98 101/101/101 99/99/99 
f 99/99/99 101/101/101 100/100/100 
# 156 faces

