# 3ds Max Wavefront OBJ Exporter v0.97b - (c)2007 guruware
# 创建的文件:08.07.2019 10:54:35

#
# object Leaf138
#

v  -0.0400 -0.0079 -0.0069
v  -0.0429 -0.0072 0.0214
v  -0.0225 0.0027 0.0003
v  -0.0231 -0.0062 0.0262
v  -0.0023 -0.0027 0.0033
v  -0.0015 -0.0157 0.0261
v  0.0165 0.0056 0.0007
v  0.0185 0.0012 0.0286
v  0.0343 0.0169 -0.0010
v  0.0388 0.0008 0.0243
v  -0.0424 -0.0099 0.0551
v  -0.0213 -0.0109 0.0558
v  0.0008 -0.0232 0.0499
v  0.0212 -0.0066 0.0524
v  0.0416 -0.0070 0.0461
v  -0.0394 -0.0279 0.0780
v  -0.0186 -0.0239 0.0793
v  0.0042 -0.0316 0.0736
v  0.0248 -0.0223 0.0731
v  0.0429 -0.0053 0.0744
v  -0.0382 -0.0362 0.1023
v  -0.0149 -0.0420 0.0983
v  0.0058 -0.0377 0.0989
v  0.0259 -0.0272 0.1014
v  0.0450 -0.0160 0.1027
v  -0.0336 -0.0511 0.1282
v  -0.0110 -0.0545 0.1220
v  0.0110 -0.0562 0.1159
v  0.0308 -0.0435 0.1206
v  0.0511 -0.0371 0.1184
v  -0.0274 -0.0715 0.1472
v  -0.0066 -0.0655 0.1487
v  0.0154 -0.0690 0.1374
v  0.0352 -0.0554 0.1448
v  0.0554 -0.0486 0.1426
v  -0.0206 -0.0943 0.1608
v  0.0003 -0.0894 0.1606
v  0.0209 -0.0855 0.1568
v  0.0415 -0.0769 0.1594
v  0.0619 -0.0709 0.1556
v  -0.0136 -0.1183 0.1709
v  0.0068 -0.1120 0.1734
v  0.0273 -0.1061 0.1721
v  0.0469 -0.0971 0.1785
v  0.0677 -0.0903 0.1742
v  -0.0093 -0.1403 0.1768
v  0.0114 -0.1358 0.1811
v  0.0357 -0.1305 0.1703
v  0.0528 -0.1247 0.1874
v  0.0705 -0.1183 0.2000
v  -0.0007 -0.1671 0.1786
v  0.0203 -0.1621 0.1800
v  0.0421 -0.1536 0.1714
v  0.0616 -0.1511 0.1864
v  0.0819 -0.1444 0.1889
v  0.0044 -0.1900 0.1752
v  0.0261 -0.1837 0.1705
v  0.0470 -0.1786 0.1690
v  0.0682 -0.1774 0.1768
v  0.0892 -0.1727 0.1790
v  0.0127 -0.2191 0.1702
v  0.0334 -0.2127 0.1673
v  0.0524 -0.2015 0.1588
v  0.0748 -0.2003 0.1646
v  0.0959 -0.1957 0.1665
v  0.0134 -0.2338 0.1485
v  0.0349 -0.2299 0.1476
v  0.0560 -0.2205 0.1423
v  0.0778 -0.2226 0.1481
v  0.0991 -0.2229 0.1531
v  0.0131 -0.2438 0.1284
v  0.0350 -0.2415 0.1263
v  0.0565 -0.2372 0.1232
v  0.0780 -0.2470 0.1310
v  0.0994 -0.2499 0.1344
v  0.0175 -0.2704 0.1098
v  0.0386 -0.2632 0.1072
v  0.0584 -0.2485 0.1009
v  0.0815 -0.2539 0.1063
v  0.1040 -0.2591 0.1121
v  0.0228 -0.2841 0.0862
v  0.0447 -0.2801 0.0862
v  0.0613 -0.2633 0.0803
v  0.0839 -0.2599 0.0815
v  0.1055 -0.2550 0.0825
v  0.0270 -0.2945 0.0583
v  0.0461 -0.2803 0.0567
v  0.0650 -0.2677 0.0558
v  0.0887 -0.2727 0.0605
v  0.1104 -0.2711 0.0637
v  0.0321 -0.2965 0.0304
v  0.0517 -0.2868 0.0314
v  0.0700 -0.2752 0.0322
v  0.0941 -0.2769 0.0365
v  0.1136 -0.2673 0.0386
v  0.0308 -0.2960 0.0095
v  0.0524 -0.2958 0.0097
v  0.0722 -0.2839 0.0081
v  0.0946 -0.2861 0.0094
v  0.1164 -0.2876 0.0110
v  0.0763 -0.2888 -0.0166
# 101 vertices

vn -0.4948 0.8659 -0.0740
vn -0.2375 0.9649 0.1123
vn -0.1489 0.9681 0.2017
vn 0.1389 0.9584 0.2493
vn 0.0902 0.8951 0.4366
vn -0.0596 0.9407 0.3339
vn -0.4980 0.8215 0.2777
vn -0.3975 0.8628 0.3122
vn -0.2104 0.9057 0.3680
vn 0.1071 0.9181 0.3815
vn -0.0034 0.9559 0.2936
vn 0.2318 0.9087 0.3473
vn -0.0942 0.9300 0.3553
vn -0.2107 0.8728 0.4403
vn -0.1408 0.9328 0.3319
vn -0.1267 0.8655 0.4846
vn 0.2071 0.8577 0.4706
vn -0.1436 0.8959 0.4204
vn -0.4252 0.8503 0.3101
vn -0.6288 0.7606 0.1615
vn 0.1296 0.8656 0.4837
vn 0.1414 0.8608 0.4888
vn -0.2502 0.8559 0.4525
vn -0.5156 0.7219 0.4615
vn -0.3475 0.6998 0.6242
vn 0.2743 0.8150 0.5104
vn 0.0820 0.8506 0.5193
vn -0.1277 0.7823 0.6097
vn -0.4154 0.6838 0.5999
vn -0.1895 0.7850 0.5897
vn -0.0679 0.7234 0.6871
vn 0.0753 0.7336 0.6754
vn -0.1844 0.7467 0.6390
vn -0.3598 0.6841 0.6345
vn -0.1130 0.6584 0.7441
vn -0.1212 0.4178 0.9004
vn 0.0151 0.5158 0.8566
vn -0.2196 0.5747 0.7883
vn -0.2085 0.5491 0.8093
vn -0.0443 0.6242 0.7800
vn -0.1672 0.3400 0.9255
vn -0.1279 0.3856 0.9138
vn -0.1398 0.3310 0.9332
vn -0.2728 0.3930 0.8781
vn -0.2154 0.5363 0.8161
vn -0.2156 0.1583 0.9636
vn 0.0415 0.1142 0.9926
vn -0.1021 0.0109 0.9947
vn -0.5476 0.0573 0.8348
vn -0.4306 -0.0351 0.9018
vn -0.0973 -0.0710 0.9927
vn 0.2335 -0.0983 0.9674
vn -0.1874 -0.1468 0.9712
vn -0.3412 -0.3005 0.8906
vn -0.0037 -0.3549 0.9349
vn 0.1699 -0.1926 0.9664
vn 0.2213 -0.1542 0.9629
vn -0.0871 -0.2598 0.9617
vn -0.1321 -0.4192 0.8982
vn 0.0058 -0.4263 0.9046
vn 0.2601 -0.3425 0.9028
vn 0.3317 -0.4539 0.8270
vn 0.1643 -0.5448 0.8223
vn -0.0853 -0.5559 0.8269
vn -0.0436 -0.5088 0.8598
vn 0.2206 -0.8063 0.5488
vn 0.3356 -0.7562 0.5617
vn 0.0835 -0.7164 0.6927
vn -0.2273 -0.5839 0.7794
vn -0.2027 -0.5258 0.8261
vn 0.1547 -0.7896 0.5938
vn 0.2554 -0.7082 0.6582
vn -0.0230 -0.7566 0.6535
vn -0.3220 -0.7653 0.5574
vn -0.2330 -0.8478 0.4764
vn 0.2585 -0.6566 0.7086
vn 0.3796 -0.6804 0.6269
vn 0.1682 -0.8430 0.5109
vn -0.2002 -0.9332 0.2983
vn -0.1194 -0.9833 0.1371
vn 0.2147 -0.8272 0.5193
vn 0.5220 -0.7593 0.3885
vn 0.3562 -0.8789 0.3173
vn 0.0206 -0.9639 0.2653
vn 0.1246 -0.9163 0.3807
vn 0.4688 -0.8613 0.1957
vn 0.5740 -0.7977 0.1851
vn 0.2148 -0.9220 0.3221
vn -0.0761 -0.9210 0.3821
vn 0.1613 -0.9496 0.2689
vn 0.4915 -0.8589 0.1442
vn 0.4078 -0.8674 0.2852
vn 0.1811 -0.9326 0.3121
vn 0.0957 -0.9733 0.2087
vn 0.2648 -0.9197 0.2898
vn 0.1636 -0.9861 0.0293
vn 0.3246 -0.9185 0.2258
vn 0.1426 -0.9445 0.2958
vn -0.0009 -0.9479 0.3187
vn -0.0924 -0.9199 0.3811
vn 0.0891 -0.9921 0.0879
# 101 vertex normals

vt 1.0000 0.0000 0.0000
vt 1.0000 0.0500 0.0000
vt 0.7500 0.0000 0.0000
vt 0.7500 0.0500 0.0000
vt 0.5000 0.0000 0.0000
vt 0.5000 0.0500 0.0000
vt 0.2500 0.0000 0.0000
vt 0.2500 0.0500 0.0000
vt 0.0000 0.0000 0.0000
vt 0.0000 0.0500 0.0000
vt 1.0000 0.1000 0.0000
vt 0.7500 0.1000 0.0000
vt 0.5000 0.1000 0.0000
vt 0.2500 0.1000 0.0000
vt 0.0000 0.1000 0.0000
vt 1.0000 0.1500 0.0000
vt 0.7500 0.1500 0.0000
vt 0.5000 0.1500 0.0000
vt 0.2500 0.1500 0.0000
vt 0.0000 0.1500 0.0000
vt 1.0000 0.2000 0.0000
vt 0.7500 0.2000 0.0000
vt 0.5000 0.2000 0.0000
vt 0.2500 0.2000 0.0000
vt 0.0000 0.2000 0.0000
vt 1.0000 0.2500 0.0000
vt 0.7500 0.2500 0.0000
vt 0.5000 0.2500 0.0000
vt 0.2500 0.2500 0.0000
vt 0.0000 0.2500 0.0000
vt 1.0000 0.3000 0.0000
vt 0.7500 0.3000 0.0000
vt 0.5000 0.3000 0.0000
vt 0.2500 0.3000 0.0000
vt 0.0000 0.3000 0.0000
vt 1.0000 0.3500 0.0000
vt 0.7500 0.3500 0.0000
vt 0.5000 0.3500 0.0000
vt 0.2500 0.3500 0.0000
vt 0.0000 0.3500 0.0000
vt 1.0000 0.4000 0.0000
vt 0.7500 0.4000 0.0000
vt 0.5000 0.4000 0.0000
vt 0.2500 0.4000 0.0000
vt 0.0000 0.4000 0.0000
vt 1.0000 0.4500 0.0000
vt 0.7500 0.4500 0.0000
vt 0.5000 0.4500 0.0000
vt 0.2500 0.4500 0.0000
vt 0.0000 0.4500 0.0000
vt 1.0000 0.5000 0.0000
vt 0.7500 0.5000 0.0000
vt 0.5000 0.5000 0.0000
vt 0.2500 0.5000 0.0000
vt 0.0000 0.5000 0.0000
vt 1.0000 0.5500 0.0000
vt 0.7500 0.5500 0.0000
vt 0.5000 0.5500 0.0000
vt 0.2500 0.5500 0.0000
vt 0.0000 0.5500 0.0000
vt 1.0000 0.6000 0.0000
vt 0.7500 0.6000 0.0000
vt 0.5000 0.6000 0.0000
vt 0.2500 0.6000 0.0000
vt 0.0000 0.6000 0.0000
vt 1.0000 0.6500 0.0000
vt 0.7500 0.6500 0.0000
vt 0.5000 0.6500 0.0000
vt 0.2500 0.6500 0.0000
vt 0.0000 0.6500 0.0000
vt 1.0000 0.7000 0.0000
vt 0.7500 0.7000 0.0000
vt 0.5000 0.7000 0.0000
vt 0.2500 0.7000 0.0000
vt 0.0000 0.7000 0.0000
vt 1.0000 0.7500 0.0000
vt 0.7500 0.7500 0.0000
vt 0.5000 0.7500 0.0000
vt 0.2500 0.7500 0.0000
vt 0.0000 0.7500 0.0000
vt 1.0000 0.8000 0.0000
vt 0.7500 0.8000 0.0000
vt 0.5000 0.8000 0.0000
vt 0.2500 0.8000 0.0000
vt 0.0000 0.8000 0.0000
vt 1.0000 0.8500 0.0000
vt 0.7500 0.8500 0.0000
vt 0.5000 0.8500 0.0000
vt 0.2500 0.8500 0.0000
vt 0.0000 0.8500 0.0000
vt 1.0000 0.9000 0.0000
vt 0.7500 0.9000 0.0000
vt 0.5000 0.9000 0.0000
vt 0.2500 0.9000 0.0000
vt 0.0000 0.9000 0.0000
vt 1.0000 0.9500 0.0000
vt 0.7500 0.9500 0.0000
vt 0.5000 0.9500 0.0000
vt 0.2500 0.9500 0.0000
vt 0.0000 0.9500 0.0000
vt 0.5000 1.0000 0.0000
# 101 texture coords

g Leaf138
s 1
f 1/1/1 2/2/2 3/3/3 
f 3/3/3 2/2/2 4/4/4 
f 3/3/3 4/4/4 5/5/5 
f 5/5/5 4/4/4 6/6/6 
f 5/5/5 6/6/6 7/7/7 
f 7/7/7 6/6/6 8/8/8 
f 7/7/7 8/8/8 9/9/9 
f 9/9/9 8/8/8 10/10/10 
f 2/2/2 11/11/11 4/4/4 
f 4/4/4 11/11/11 12/12/12 
f 4/4/4 12/12/12 6/6/6 
f 6/6/6 12/12/12 13/13/13 
f 6/6/6 13/13/13 8/8/8 
f 8/8/8 13/13/13 14/14/14 
f 8/8/8 14/14/14 10/10/10 
f 10/10/10 14/14/14 15/15/15 
f 11/11/11 16/16/16 12/12/12 
f 12/12/12 16/16/16 17/17/17 
f 12/12/12 17/17/17 13/13/13 
f 13/13/13 17/17/17 18/18/18 
f 13/13/13 18/18/18 14/14/14 
f 14/14/14 18/18/18 19/19/19 
f 14/14/14 19/19/19 15/15/15 
f 15/15/15 19/19/19 20/20/20 
f 16/16/16 21/21/21 17/17/17 
f 17/17/17 21/21/21 22/22/22 
f 17/17/17 22/22/22 18/18/18 
f 18/18/18 22/22/22 23/23/23 
f 18/18/18 23/23/23 19/19/19 
f 19/19/19 23/23/23 24/24/24 
f 19/19/19 24/24/24 20/20/20 
f 20/20/20 24/24/24 25/25/25 
f 21/21/21 26/26/26 22/22/22 
f 22/22/22 26/26/26 27/27/27 
f 22/22/22 27/27/27 23/23/23 
f 23/23/23 27/27/27 28/28/28 
f 23/23/23 28/28/28 24/24/24 
f 24/24/24 28/28/28 29/29/29 
f 24/24/24 29/29/29 25/25/25 
f 25/25/25 29/29/29 30/30/30 
f 26/26/26 31/31/31 27/27/27 
f 27/27/27 31/31/31 32/32/32 
f 27/27/27 32/32/32 28/28/28 
f 28/28/28 32/32/32 33/33/33 
f 28/28/28 33/33/33 29/29/29 
f 29/29/29 33/33/33 34/34/34 
f 29/29/29 34/34/34 30/30/30 
f 30/30/30 34/34/34 35/35/35 
f 31/31/31 36/36/36 32/32/32 
f 32/32/32 36/36/36 37/37/37 
f 32/32/32 37/37/37 33/33/33 
f 33/33/33 37/37/37 38/38/38 
f 33/33/33 38/38/38 34/34/34 
f 34/34/34 38/38/38 39/39/39 
f 34/34/34 39/39/39 35/35/35 
f 35/35/35 39/39/39 40/40/40 
f 36/36/36 41/41/41 37/37/37 
f 37/37/37 41/41/41 42/42/42 
f 37/37/37 42/42/42 38/38/38 
f 38/38/38 42/42/42 43/43/43 
f 38/38/38 43/43/43 39/39/39 
f 39/39/39 43/43/43 44/44/44 
f 39/39/39 44/44/44 40/40/40 
f 40/40/40 44/44/44 45/45/45 
f 41/41/41 46/46/46 42/42/42 
f 42/42/42 46/46/46 47/47/47 
f 42/42/42 47/47/47 43/43/43 
f 43/43/43 47/47/47 48/48/48 
f 43/43/43 48/48/48 44/44/44 
f 44/44/44 48/48/48 49/49/49 
f 44/44/44 49/49/49 45/45/45 
f 45/45/45 49/49/49 50/50/50 
f 46/46/46 51/51/51 47/47/47 
f 47/47/47 51/51/51 52/52/52 
f 47/47/47 52/52/52 48/48/48 
f 48/48/48 52/52/52 53/53/53 
f 48/48/48 53/53/53 49/49/49 
f 49/49/49 53/53/53 54/54/54 
f 49/49/49 54/54/54 50/50/50 
f 50/50/50 54/54/54 55/55/55 
f 51/51/51 56/56/56 52/52/52 
f 52/52/52 56/56/56 57/57/57 
f 52/52/52 57/57/57 53/53/53 
f 53/53/53 57/57/57 58/58/58 
f 53/53/53 58/58/58 54/54/54 
f 54/54/54 58/58/58 59/59/59 
f 54/54/54 59/59/59 55/55/55 
f 55/55/55 59/59/59 60/60/60 
f 56/56/56 61/61/61 57/57/57 
f 57/57/57 61/61/61 62/62/62 
f 57/57/57 62/62/62 58/58/58 
f 58/58/58 62/62/62 63/63/63 
f 58/58/58 63/63/63 59/59/59 
f 59/59/59 63/63/63 64/64/64 
f 59/59/59 64/64/64 60/60/60 
f 60/60/60 64/64/64 65/65/65 
f 61/61/61 66/66/66 62/62/62 
f 62/62/62 66/66/66 67/67/67 
f 62/62/62 67/67/67 63/63/63 
f 63/63/63 67/67/67 68/68/68 
f 63/63/63 68/68/68 64/64/64 
f 64/64/64 68/68/68 69/69/69 
f 64/64/64 69/69/69 65/65/65 
f 65/65/65 69/69/69 70/70/70 
f 66/66/66 71/71/71 67/67/67 
f 67/67/67 71/71/71 72/72/72 
f 67/67/67 72/72/72 68/68/68 
f 68/68/68 72/72/72 73/73/73 
f 68/68/68 73/73/73 69/69/69 
f 69/69/69 73/73/73 74/74/74 
f 69/69/69 74/74/74 70/70/70 
f 70/70/70 74/74/74 75/75/75 
f 71/71/71 76/76/76 72/72/72 
f 72/72/72 76/76/76 77/77/77 
f 72/72/72 77/77/77 73/73/73 
f 73/73/73 77/77/77 78/78/78 
f 73/73/73 78/78/78 74/74/74 
f 74/74/74 78/78/78 79/79/79 
f 74/74/74 79/79/79 75/75/75 
f 75/75/75 79/79/79 80/80/80 
f 76/76/76 81/81/81 77/77/77 
f 77/77/77 81/81/81 82/82/82 
f 77/77/77 82/82/82 78/78/78 
f 78/78/78 82/82/82 83/83/83 
f 78/78/78 83/83/83 79/79/79 
f 79/79/79 83/83/83 84/84/84 
f 79/79/79 84/84/84 80/80/80 
f 80/80/80 84/84/84 85/85/85 
f 81/81/81 86/86/86 82/82/82 
f 82/82/82 86/86/86 87/87/87 
f 82/82/82 87/87/87 83/83/83 
f 83/83/83 87/87/87 88/88/88 
f 83/83/83 88/88/88 84/84/84 
f 84/84/84 88/88/88 89/89/89 
f 84/84/84 89/89/89 85/85/85 
f 85/85/85 89/89/89 90/90/90 
f 86/86/86 91/91/91 87/87/87 
f 87/87/87 91/91/91 92/92/92 
f 87/87/87 92/92/92 88/88/88 
f 88/88/88 92/92/92 93/93/93 
f 88/88/88 93/93/93 89/89/89 
f 89/89/89 93/93/93 94/94/94 
f 89/89/89 94/94/94 90/90/90 
f 90/90/90 94/94/94 95/95/95 
f 91/91/91 96/96/96 92/92/92 
f 92/92/92 96/96/96 97/97/97 
f 92/92/92 97/97/97 93/93/93 
f 93/93/93 97/97/97 98/98/98 
f 93/93/93 98/98/98 94/94/94 
f 94/94/94 98/98/98 99/99/99 
f 94/94/94 99/99/99 95/95/95 
f 95/95/95 99/99/99 100/100/100 
f 96/96/96 101/101/101 97/97/97 
f 97/97/97 101/101/101 98/98/98 
f 98/98/98 101/101/101 99/99/99 
f 99/99/99 101/101/101 100/100/100 
# 156 faces

