# Creator xfrog, (c) 1997-2002 by Greenworks, Lintermann und Deussen GdBR (see http://www.greenworks.de)
# "date: ÖÜ¶ş, 26 2ÔÂ 2019 09:03:32"

mtllib leaf - yong.mtl


# vertices 101

# triangles 156

v -0.00753779 0.00475338 -0.000124028
vn -0.173649 -0.173475 0.969408
vt 1 0
v -0.00372655 0.00286695 0.000221101
vn -0.0367005 0.390998 0.91966
vt 0.75 0
v 0 -0.000445954 -0.000243626
vn 0.195396 0.554576 0.808867
vt 0.5 0
v 0.00389594 0.0033779 0.000439093
vn -0.341805 0.51353 0.787055
vt 0.25 0
v 0.00770718 0.00396914 -0.000613603
vn 0.280917 0.291782 0.914302
vt 0 0
v -0.00763247 0.00102961 -0.000807352
vn -0.378396 0.674773 0.633639
vt 1 0.05
v -0.00381661 0.00215168 0.000853682
vn 0.203307 0.796187 0.569871
vt 0.75 0.05
v 0 -0.00181707 0.00063514
vn -0.0673137 0.902394 0.425623
vt 0.5 0.05
v 0.00398639 0.00262434 0.00095877
vn 0.00889111 0.522452 0.852622
vt 0.25 0.05
v 0.00780196 0.00146145 -0.000716219
vn 0.172207 0.589037 0.789544
vt 0 0.05
v -0.00775022 0.00158372 0.000985498
vn -0.125838 0.933767 0.335029
vt 1 0.1
v -0.00391353 0.0011758 0.00213771
vn 0.151266 0.922301 0.35564
vt 0.75 0.1
v 0 4.387e-005 0.00289143
vn 0.122017 0.927862 0.352398
vt 0.5 0.1
v 0.00408502 0.000116417 0.0018979
vn -0.241632 0.893581 0.378321
vt 0.25 0.1
v 0.00792017 0.00340145 0.0012497
vn -0.618628 0.757254 -0.209442
vt 0 0.1
v -0.00787516 3.51154e-005 0.0029657
vn -0.0604853 0.990663 0.12218
vt 1 0.15
v -0.00399551 0.000375311 0.00416349
vn 0.252264 0.933866 0.253489
vt 0.75 0.15
v 0 -0.00181221 0.00485782
vn -0.0743877 0.996957 0.0233151
vt 0.5 0.15
v 0.00417017 0.000711702 0.00412532
vn -0.552039 0.760257 -0.342436
vt 0.25 0.15
v 0.00804617 0.00323406 0.00303375
vn -0.440441 0.885736 -0.146571
vt 0 0.15
v -0.00799256 0.00236771 0.00553146
vn 0.448496 0.892042 -0.055787
vt 1 0.2
v -0.00405264 -0.000594252 0.00686321
vn 0.260749 0.955615 -0.137153
vt 0.75 0.2
v 0 0.000851733 0.00738989
vn -0.292693 0.881439 -0.370669
vt 0.5 0.2
v 0.00423097 0.0027104 0.00659303
vn -0.343582 0.935212 -0.0856169
vt 0.25 0.2
v 0.00816531 0.00329163 0.00541625
vn -0.22146 0.974454 0.0373583
vt 0 0.2
v -0.00809123 0.00159724 0.00871091
vn 0.357275 0.93123 -0.0718652
vt 1 0.25
v -0.00408724 0.000815915 0.00986792
vn 0.0759562 0.965359 -0.249626
vt 0.75 0.25
v 0 0.000326037 0.0104359
vn -0.0348681 0.991315 0.126802
vt 0.5 0.25
v 0.00426869 0.00196578 0.00966754
vn -0.348297 0.93081 0.110825
vt 0.25 0.25
v 0.00826626 0.00370005 0.00836698
vn -0.372335 0.928095 0.00262365
vt 0 0.25
v -0.00816508 0.00166877 0.0123696
vn 0.0477809 0.948901 -0.311934
vt 1 0.3
v -0.00410561 0.00222028 0.0132134
vn 0.223479 0.911045 -0.346487
vt 0.75 0.3
v 0 -0.000806288 0.014153
vn 0.0923064 0.992909 -0.0749117
vt 0.5 0.3
v 0.00428919 0.00193698 0.0132298
vn -0.482934 0.861578 -0.156392
vt 0.25 0.3
v 0.00834249 0.00330761 0.0120303
vn -0.286011 0.940752 -0.182161
vt 0 0.3
v -0.00821336 0.00385435 0.0160915
vn -0.0171999 0.888927 -0.457725
vt 1 0.35
v -0.00411285 0.00430133 0.0168343
vn 0.35975 0.864596 -0.35079
vt 0.75 0.35
v 0 0.000448957 0.0178896
vn -0.022404 0.865462 -0.500474
vt 0.5 0.35
v 0.0042977 0.00381943 0.0168972
vn -0.326645 0.890234 -0.317468
vt 0.25 0.35
v 0.00839287 0.00421142 0.0159802
vn -0.110441 0.985693 -0.127329
vt 0 0.35
v -0.00824525 0.00551146 0.0203218
vn 0.0335618 0.929325 -0.367734
vt 1 0.4
v -0.00411539 0.00549473 0.0210432
vn 0.339524 0.89996 -0.273489
vt 0.75 0.4
v 0 0.00435902 0.0215176
vn 0.0110021 0.956408 -0.291826
vt 0.5 0.4
v 0.00430099 0.00425132 0.0212462
vn -0.0414014 0.993214 -0.108679
vt 0.25 0.4
v 0.00842649 0.00450143 0.0204668
vn -0.0762653 0.99109 -0.109201
vt 0 0.4
v -0.00827255 0.00786976 0.0248381
vn 0.405793 0.904404 -0.131855
vt 1 0.45
v -0.00411904 0.00518325 0.0259021
vn 0.287981 0.949403 -0.125306
vt 0.75 0.45
v 0 0.00489659 0.0261721
vn 0.0595507 0.972865 -0.223579
vt 0.5 0.45
v 0.00430522 0.00490403 0.0259279
vn -0.0676218 0.968585 -0.239311
vt 0.25 0.45
v 0.00845527 0.00511399 0.0252563
vn -0.135635 0.9398 -0.313655
vt 0 0.45
v -0.00829921 0.00768969 0.0301242
vn 0.283564 0.953782 -0.0994578
vt 1 0.5
v -0.00412507 0.0071795 0.0307376
vn 0.156387 0.978746 -0.132663
vt 0.75 0.5
v 0 0.00639501 0.0310372
vn 0.0483745 0.991366 -0.121874
vt 0.5 0.5
v 0.00431181 0.00681688 0.0307717
vn -0.193071 0.949095 -0.248881
vt 0.25 0.5
v 0.00848323 0.00756538 0.030111
vn -0.298595 0.895046 -0.33126
vt 0 0.5
v -0.00832254 0.00736516 0.0356927
vn 0.17719 0.974694 -0.136295
vt 1 0.55
v -0.00413142 0.00658571 0.0362577
vn 0.195394 0.952129 -0.235098
vt 0.75 0.55
v 0 0.00603272 0.0364847
vn -0.0464623 0.969384 -0.241115
vt 0.5 0.55
v 0.00431864 0.00784824 0.0360948
vn -0.285804 0.943061 -0.170153
vt 0.25 0.55
v 0.00850761 0.00987256 0.0353712
vn -0.514431 0.845664 -0.142171
vt 0 0.55
v -0.00834229 0.0110964 0.0411145
vn 0.251337 0.91872 -0.304602
vt 1 0.6
v -0.00413742 0.0100434 0.0416314
vn 0.234836 0.953523 -0.188803
vt 0.75 0.6
v 0 0.00849632 0.0419185
vn 0.185773 0.977387 -0.101005
vt 0.5 0.6
v 0.00432505 0.00746789 0.0418616
vn -0.230961 0.971639 -0.0507437
vt 0.25 0.6
v 0.00852822 0.0108046 0.0411178
vn -0.562364 0.824138 -0.0674002
vt 0 0.6
v -0.00835785 0.00965158 0.0473074
vn 0.0835369 0.990992 0.104671
vt 1 0.65
v -0.00414234 0.00955554 0.0476854
vn 0.130624 0.991307 -0.0157191
vt 0.75 0.65
v 0 0.00831967 0.0479002
vn 0.220007 0.975471 -0.00732436
vt 0.5 0.65
v 0.00433028 0.00851569 0.0477503
vn -0.366857 0.922739 -0.118191
vt 0.25 0.65
v 0.00854444 0.0104251 0.047229
vn -0.190906 0.981449 -0.0176799
vt 0 0.65
v -0.00838387 0.009599 0.0535779
vn -0.122313 0.989403 -0.078243
vt 1 0.7
v -0.00415315 0.0104738 0.0538629
vn 0.158157 0.984739 -0.0726316
vt 0.75 0.7
v 0 0.00757835 0.0541308
vn 0.109084 0.993268 -0.038971
vt 0.5 0.7
v 0.00434166 0.0105354 0.0538493
vn -0.270616 0.959003 -0.0841456
vt 0.25 0.7
v 0.00857128 0.00921276 0.0535793
vn 0.211365 0.977268 -0.0165056
vt 0 0.7
v -0.00845221 0.0102236 0.0600104
vn -0.160745 0.970579 -0.179269
vt 1 0.75
v -0.00418542 0.0109181 0.0602866
vn 0.359382 0.931894 -0.0491716
vt 0.75 0.75
v 0 0.00796573 0.0604961
vn -0.127288 0.981863 -0.140511
vt 0.5 0.75
v 0.00437545 0.0106832 0.0602861
vn -0.111447 0.989146 -0.0957616
vt 0.25 0.75
v 0.00864132 0.0105346 0.059981
vn 0.0257486 0.998099 -0.055993
vt 0 0.75
v -0.00849836 0.0128348 0.0665893
vn 0.363314 0.928386 -0.0781233
vt 1 0.8
v -0.00420706 0.00984992 0.0669282
vn 0.309471 0.948794 -0.063389
vt 0.75 0.8
v 0 0.010774 0.0669992
vn -0.128529 0.98328 -0.128996
vt 0.5 0.8
v 0.00439811 0.0105337 0.0669053
vn 0.0107728 0.999929 -0.00500512
vt 0.25 0.8
v 0.00868865 0.0104481 0.0666238
vn 0.0442288 0.998752 -0.0232142
vt 0 0.8
v -0.00840219 0.0126211 0.0734102
vn 0.461224 0.88505 0.0629157
vt 1 0.85
v -0.00415852 0.0107227 0.073671
vn 0.16696 0.981489 0.0938327
vt 0.75 0.85
v 0 0.0104675 0.0737543
vn 0.0530829 0.981848 0.182092
vt 0.5 0.85
v 0.0043474 0.0109826 0.0736618
vn -0.139667 0.99011 -0.0132155
vt 0.25 0.85
v 0.00859044 0.0105684 0.0734087
vn 0.0938754 0.985773 -0.139424
vt 0 0.85
v -0.00842991 0.0103797 0.0803149
vn 0.320919 0.941239 0.105259
vt 1 0.9
v -0.00417152 0.00909841 0.080534
vn 0.233541 0.972124 -0.0208108
vt 0.75 0.9
v 0 0.00732653 0.0805954
vn -0.0260829 0.99671 0.0767383
vt 0.5 0.9
v 0.004361 0.0124346 0.0805529
vn -0.367848 0.92738 -0.0682194
vt 0.25 0.9
v 0.00861887 0.011944 0.0803134
vn 0.162807 0.986333 0.0253144
vt 0 0.9
v -0.00833982 0.0118646 0.0873241
vn 0.0715631 0.996892 -0.0329285
vt 1 0.95
v -0.00412636 0.01208 0.087538
vn 0.418598 0.904644 -0.0799648
vt 0.75 0.95
v 0 0.00708955 0.0874989
vn -0.206545 0.977653 -0.039165
vt 0.5 0.95
v 0.00431382 0.0117838 0.0875253
vn -0.198996 0.96377 0.177619
vt 0.25 0.95
v 0.00852682 0.010673 0.0872859
vn 0.256535 0.893559 0.368431
vt 0 0.95
v -6.0811e-017 0.00834019 0.0945048
vn 0.0672507 0.962059 0.264422
vt 0.5 1
g Leaf24
usemtl Default_Leaf2
f 1/1/1 6/6/6 2/2/2
f 2/2/2 6/6/6 7/7/7
f 2/2/2 7/7/7 3/3/3
f 3/3/3 7/7/7 8/8/8
f 3/3/3 8/8/8 4/4/4
f 4/4/4 8/8/8 9/9/9
f 4/4/4 9/9/9 5/5/5
f 5/5/5 9/9/9 10/10/10
f 6/6/6 11/11/11 7/7/7
f 7/7/7 11/11/11 12/12/12
f 7/7/7 12/12/12 8/8/8
f 8/8/8 12/12/12 13/13/13
f 8/8/8 13/13/13 9/9/9
f 9/9/9 13/13/13 14/14/14
f 9/9/9 14/14/14 10/10/10
f 10/10/10 14/14/14 15/15/15
f 11/11/11 16/16/16 12/12/12
f 12/12/12 16/16/16 17/17/17
f 12/12/12 17/17/17 13/13/13
f 13/13/13 17/17/17 18/18/18
f 13/13/13 18/18/18 14/14/14
f 14/14/14 18/18/18 19/19/19
f 14/14/14 19/19/19 15/15/15
f 15/15/15 19/19/19 20/20/20
f 16/16/16 21/21/21 17/17/17
f 17/17/17 21/21/21 22/22/22
f 17/17/17 22/22/22 18/18/18
f 18/18/18 22/22/22 23/23/23
f 18/18/18 23/23/23 19/19/19
f 19/19/19 23/23/23 24/24/24
f 19/19/19 24/24/24 20/20/20
f 20/20/20 24/24/24 25/25/25
f 21/21/21 26/26/26 22/22/22
f 22/22/22 26/26/26 27/27/27
f 22/22/22 27/27/27 23/23/23
f 23/23/23 27/27/27 28/28/28
f 23/23/23 28/28/28 24/24/24
f 24/24/24 28/28/28 29/29/29
f 24/24/24 29/29/29 25/25/25
f 25/25/25 29/29/29 30/30/30
f 26/26/26 31/31/31 27/27/27
f 27/27/27 31/31/31 32/32/32
f 27/27/27 32/32/32 28/28/28
f 28/28/28 32/32/32 33/33/33
f 28/28/28 33/33/33 29/29/29
f 29/29/29 33/33/33 34/34/34
f 29/29/29 34/34/34 30/30/30
f 30/30/30 34/34/34 35/35/35
f 31/31/31 36/36/36 32/32/32
f 32/32/32 36/36/36 37/37/37
f 32/32/32 37/37/37 33/33/33
f 33/33/33 37/37/37 38/38/38
f 33/33/33 38/38/38 34/34/34
f 34/34/34 38/38/38 39/39/39
f 34/34/34 39/39/39 35/35/35
f 35/35/35 39/39/39 40/40/40
f 36/36/36 41/41/41 37/37/37
f 37/37/37 41/41/41 42/42/42
f 37/37/37 42/42/42 38/38/38
f 38/38/38 42/42/42 43/43/43
f 38/38/38 43/43/43 39/39/39
f 39/39/39 43/43/43 44/44/44
f 39/39/39 44/44/44 40/40/40
f 40/40/40 44/44/44 45/45/45
f 41/41/41 46/46/46 42/42/42
f 42/42/42 46/46/46 47/47/47
f 42/42/42 47/47/47 43/43/43
f 43/43/43 47/47/47 48/48/48
f 43/43/43 48/48/48 44/44/44
f 44/44/44 48/48/48 49/49/49
f 44/44/44 49/49/49 45/45/45
f 45/45/45 49/49/49 50/50/50
f 46/46/46 51/51/51 47/47/47
f 47/47/47 51/51/51 52/52/52
f 47/47/47 52/52/52 48/48/48
f 48/48/48 52/52/52 53/53/53
f 48/48/48 53/53/53 49/49/49
f 49/49/49 53/53/53 54/54/54
f 49/49/49 54/54/54 50/50/50
f 50/50/50 54/54/54 55/55/55
f 51/51/51 56/56/56 52/52/52
f 52/52/52 56/56/56 57/57/57
f 52/52/52 57/57/57 53/53/53
f 53/53/53 57/57/57 58/58/58
f 53/53/53 58/58/58 54/54/54
f 54/54/54 58/58/58 59/59/59
f 54/54/54 59/59/59 55/55/55
f 55/55/55 59/59/59 60/60/60
f 56/56/56 61/61/61 57/57/57
f 57/57/57 61/61/61 62/62/62
f 57/57/57 62/62/62 58/58/58
f 58/58/58 62/62/62 63/63/63
f 58/58/58 63/63/63 59/59/59
f 59/59/59 63/63/63 64/64/64
f 59/59/59 64/64/64 60/60/60
f 60/60/60 64/64/64 65/65/65
f 61/61/61 66/66/66 62/62/62
f 62/62/62 66/66/66 67/67/67
f 62/62/62 67/67/67 63/63/63
f 63/63/63 67/67/67 68/68/68
f 63/63/63 68/68/68 64/64/64
f 64/64/64 68/68/68 69/69/69
f 64/64/64 69/69/69 65/65/65
f 65/65/65 69/69/69 70/70/70
f 66/66/66 71/71/71 67/67/67
f 67/67/67 71/71/71 72/72/72
f 67/67/67 72/72/72 68/68/68
f 68/68/68 72/72/72 73/73/73
f 68/68/68 73/73/73 69/69/69
f 69/69/69 73/73/73 74/74/74
f 69/69/69 74/74/74 70/70/70
f 70/70/70 74/74/74 75/75/75
f 71/71/71 76/76/76 72/72/72
f 72/72/72 76/76/76 77/77/77
f 72/72/72 77/77/77 73/73/73
f 73/73/73 77/77/77 78/78/78
f 73/73/73 78/78/78 74/74/74
f 74/74/74 78/78/78 79/79/79
f 74/74/74 79/79/79 75/75/75
f 75/75/75 79/79/79 80/80/80
f 76/76/76 81/81/81 77/77/77
f 77/77/77 81/81/81 82/82/82
f 77/77/77 82/82/82 78/78/78
f 78/78/78 82/82/82 83/83/83
f 78/78/78 83/83/83 79/79/79
f 79/79/79 83/83/83 84/84/84
f 79/79/79 84/84/84 80/80/80
f 80/80/80 84/84/84 85/85/85
f 81/81/81 86/86/86 82/82/82
f 82/82/82 86/86/86 87/87/87
f 82/82/82 87/87/87 83/83/83
f 83/83/83 87/87/87 88/88/88
f 83/83/83 88/88/88 84/84/84
f 84/84/84 88/88/88 89/89/89
f 84/84/84 89/89/89 85/85/85
f 85/85/85 89/89/89 90/90/90
f 86/86/86 91/91/91 87/87/87
f 87/87/87 91/91/91 92/92/92
f 87/87/87 92/92/92 88/88/88
f 88/88/88 92/92/92 93/93/93
f 88/88/88 93/93/93 89/89/89
f 89/89/89 93/93/93 94/94/94
f 89/89/89 94/94/94 90/90/90
f 90/90/90 94/94/94 95/95/95
f 91/91/91 96/96/96 92/92/92
f 92/92/92 96/96/96 97/97/97
f 92/92/92 97/97/97 93/93/93
f 93/93/93 97/97/97 98/98/98
f 93/93/93 98/98/98 94/94/94
f 94/94/94 98/98/98 99/99/99
f 94/94/94 99/99/99 95/95/95
f 95/95/95 99/99/99 100/100/100
f 96/96/96 101/101/101 97/97/97
f 97/97/97 101/101/101 98/98/98
f 98/98/98 101/101/101 99/99/99
f 99/99/99 101/101/101 100/100/100
