# 3ds Max Wavefront OBJ Exporter v0.97b - (c)2007 guruware
# 创建的文件:08.07.2019 10:50:44

#
# object Leaf
#

v  -0.0400 -0.0079 -0.0069
v  -0.0429 -0.0073 0.0213
v  -0.0225 0.0027 0.0003
v  -0.0231 -0.0062 0.0261
v  -0.0023 -0.0027 0.0033
v  -0.0015 -0.0157 0.0262
v  0.0165 0.0056 0.0007
v  0.0185 0.0012 0.0283
v  0.0343 0.0169 -0.0010
v  0.0388 0.0008 0.0241
v  -0.0424 -0.0094 0.0545
v  -0.0213 -0.0104 0.0555
v  0.0008 -0.0229 0.0502
v  0.0212 -0.0062 0.0521
v  0.0417 -0.0069 0.0460
v  -0.0396 -0.0263 0.0776
v  -0.0188 -0.0222 0.0790
v  0.0041 -0.0303 0.0744
v  0.0247 -0.0210 0.0735
v  0.0427 -0.0040 0.0738
v  -0.0389 -0.0325 0.1017
v  -0.0155 -0.0387 0.0993
v  0.0052 -0.0344 0.1000
v  0.0252 -0.0235 0.1016
v  0.0443 -0.0123 0.1021
v  -0.0354 -0.0430 0.1281
v  -0.0125 -0.0476 0.1243
v  0.0098 -0.0505 0.1201
v  0.0293 -0.0369 0.1229
v  0.0498 -0.0310 0.1205
v  -0.0307 -0.0576 0.1502
v  -0.0101 -0.0511 0.1516
v  0.0128 -0.0580 0.1446
v  0.0320 -0.0422 0.1485
v  0.0525 -0.0362 0.1460
v  -0.0260 -0.0735 0.1707
v  -0.0051 -0.0685 0.1711
v  0.0160 -0.0661 0.1689
v  0.0364 -0.0566 0.1697
v  0.0573 -0.0524 0.1664
v  -0.0213 -0.0888 0.1918
v  -0.0015 -0.0808 0.1935
v  0.0192 -0.0755 0.1926
v  0.0377 -0.0630 0.1953
v  0.0594 -0.0590 0.1916
v  -0.0196 -0.1017 0.2107
v  -0.0003 -0.0931 0.2145
v  0.0264 -0.0952 0.2097
v  0.0395 -0.0763 0.2191
v  0.0542 -0.0604 0.2256
v  -0.0147 -0.1160 0.2339
v  0.0057 -0.1088 0.2357
v  0.0300 -0.1084 0.2304
v  0.0448 -0.0911 0.2397
v  0.0645 -0.0823 0.2403
v  -0.0125 -0.1284 0.2527
v  0.0104 -0.1264 0.2516
v  0.0315 -0.1218 0.2523
v  0.0496 -0.1100 0.2594
v  0.0696 -0.1023 0.2616
v  -0.0094 -0.1400 0.2789
v  0.0121 -0.1367 0.2784
v  0.0348 -0.1379 0.2719
v  0.0544 -0.1273 0.2783
v  0.0746 -0.1198 0.2803
v  -0.0065 -0.1630 0.2885
v  0.0147 -0.1585 0.2911
v  0.0382 -0.1574 0.2880
v  0.0564 -0.1471 0.2971
v  0.0747 -0.1377 0.3042
v  -0.0042 -0.1827 0.2952
v  0.0172 -0.1801 0.2999
v  0.0391 -0.1783 0.3024
v  0.0544 -0.1675 0.3188
v  0.0726 -0.1602 0.3285
v  -0.0040 -0.2021 0.3205
v  0.0184 -0.2000 0.3205
v  0.0426 -0.2010 0.3128
v  0.0612 -0.1919 0.3255
v  0.0792 -0.1826 0.3380
v  0.0016 -0.2252 0.3343
v  0.0231 -0.2209 0.3377
v  0.0450 -0.2220 0.3271
v  0.0668 -0.2164 0.3313
v  0.0882 -0.2112 0.3338
v  0.0080 -0.2536 0.3446
v  0.0303 -0.2498 0.3372
v  0.0519 -0.2455 0.3313
v  0.0715 -0.2376 0.3441
v  0.0915 -0.2306 0.3499
v  0.0184 -0.2815 0.3458
v  0.0391 -0.2751 0.3429
v  0.0592 -0.2685 0.3379
v  0.0803 -0.2606 0.3476
v  0.1006 -0.2531 0.3450
v  0.0222 -0.3014 0.3417
v  0.0425 -0.2980 0.3482
v  0.0645 -0.2932 0.3429
v  0.0847 -0.2893 0.3521
v  0.1045 -0.2850 0.3606
v  0.0726 -0.3174 0.3431
# 101 vertices

vn -0.4957 0.8655 -0.0713
vn -0.2390 0.9650 0.1077
vn -0.1505 0.9674 0.2037
vn 0.1376 0.9606 0.2414
vn 0.0891 0.8951 0.4368
vn -0.0600 0.9434 0.3262
vn -0.4977 0.8216 0.2780
vn -0.3966 0.8651 0.3070
vn -0.2086 0.9050 0.3707
vn 0.1106 0.9205 0.3749
vn -0.0057 0.9621 0.2725
vn 0.2285 0.9182 0.3236
vn -0.0951 0.9394 0.3294
vn -0.2102 0.8847 0.4161
vn -0.1405 0.9424 0.3035
vn -0.1334 0.8879 0.4402
vn 0.1974 0.8843 0.4232
vn -0.1487 0.9194 0.3640
vn -0.4299 0.8673 0.2510
vn -0.6300 0.7700 0.1007
vn 0.1145 0.9091 0.4006
vn 0.1273 0.9101 0.3944
vn -0.2634 0.9003 0.3467
vn -0.5241 0.7697 0.3644
vn -0.3591 0.7691 0.5287
vn 0.2524 0.8918 0.3755
vn 0.0578 0.9364 0.3462
vn -0.1517 0.8843 0.4417
vn -0.4425 0.7818 0.4394
vn -0.2091 0.8904 0.4043
vn -0.1171 0.8853 0.4500
vn 0.0220 0.9044 0.4262
vn -0.2261 0.9014 0.3693
vn -0.4000 0.8392 0.3685
vn -0.1614 0.8588 0.4863
vn -0.2169 0.7385 0.6384
vn -0.0807 0.8352 0.5440
vn -0.2992 0.8548 0.4241
vn -0.2944 0.8410 0.4539
vn -0.1178 0.9148 0.3864
vn -0.3035 0.7775 0.5508
vn -0.2702 0.8309 0.4864
vn -0.2892 0.8023 0.5223
vn -0.4029 0.8164 0.4137
vn -0.3374 0.9099 0.2415
vn -0.4063 0.7514 0.5200
vn -0.1769 0.7888 0.5886
vn -0.3232 0.7079 0.6280
vn -0.7167 0.5842 0.3809
vn -0.6294 0.6069 0.4853
vn -0.3534 0.7411 0.5709
vn -0.0407 0.7709 0.6357
vn -0.4474 0.6906 0.5682
vn -0.5953 0.5166 0.6154
vn -0.2920 0.5909 0.7521
vn -0.1391 0.8013 0.5818
vn -0.0824 0.8419 0.5334
vn -0.3927 0.7378 0.5491
vn -0.4465 0.6051 0.6592
vn -0.3212 0.6515 0.6873
vn -0.0825 0.7904 0.6071
vn -0.0215 0.7109 0.7030
vn -0.1930 0.6427 0.7414
vn -0.4308 0.5930 0.6803
vn -0.3932 0.6603 0.6399
vn -0.1441 0.3880 0.9103
vn -0.0339 0.4543 0.8902
vn -0.2907 0.5361 0.7925
vn -0.5696 0.5778 0.5845
vn -0.5433 0.6486 0.5331
vn -0.2228 0.4881 0.8439
vn -0.1211 0.5964 0.7935
vn -0.3965 0.5217 0.7554
vn -0.6526 0.3664 0.6632
vn -0.5749 0.3057 0.7590
vn -0.1143 0.6751 0.7288
vn 0.0092 0.6157 0.7879
vn -0.2112 0.4414 0.8721
vn -0.5358 0.1551 0.8300
vn -0.4449 0.0123 0.8955
vn -0.1654 0.4654 0.8695
vn 0.1686 0.3998 0.9010
vn -0.0093 0.2861 0.9581
vn -0.3357 0.1671 0.9270
vn -0.2480 0.3021 0.9205
vn 0.1324 0.1728 0.9760
vn 0.2523 0.1786 0.9510
vn -0.1482 0.2340 0.9609
vn -0.4303 0.2416 0.8697
vn -0.1890 0.1588 0.9691
vn 0.1808 0.0755 0.9806
vn 0.0722 0.1843 0.9802
vn -0.1667 0.1615 0.9727
vn -0.2310 0.0356 0.9723
vn -0.0685 0.1341 0.9886
vn -0.1148 -0.1800 0.9769
vn 0.0101 0.0463 0.9989
vn -0.1835 0.0747 0.9802
vn -0.3216 0.0693 0.9444
vn -0.4114 0.1110 0.9047
vn -0.1913 -0.1817 0.9646
# 101 vertex normals

vt 1.0000 0.0000 0.0000
vt 1.0000 0.0500 0.0000
vt 0.7500 0.0000 0.0000
vt 0.7500 0.0500 0.0000
vt 0.5000 0.0000 0.0000
vt 0.5000 0.0500 0.0000
vt 0.2500 0.0000 0.0000
vt 0.2500 0.0500 0.0000
vt 0.0000 0.0000 0.0000
vt 0.0000 0.0500 0.0000
vt 1.0000 0.1000 0.0000
vt 0.7500 0.1000 0.0000
vt 0.5000 0.1000 0.0000
vt 0.2500 0.1000 0.0000
vt 0.0000 0.1000 0.0000
vt 1.0000 0.1500 0.0000
vt 0.7500 0.1500 0.0000
vt 0.5000 0.1500 0.0000
vt 0.2500 0.1500 0.0000
vt 0.0000 0.1500 0.0000
vt 1.0000 0.2000 0.0000
vt 0.7500 0.2000 0.0000
vt 0.5000 0.2000 0.0000
vt 0.2500 0.2000 0.0000
vt 0.0000 0.2000 0.0000
vt 1.0000 0.2500 0.0000
vt 0.7500 0.2500 0.0000
vt 0.5000 0.2500 0.0000
vt 0.2500 0.2500 0.0000
vt 0.0000 0.2500 0.0000
vt 1.0000 0.3000 0.0000
vt 0.7500 0.3000 0.0000
vt 0.5000 0.3000 0.0000
vt 0.2500 0.3000 0.0000
vt 0.0000 0.3000 0.0000
vt 1.0000 0.3500 0.0000
vt 0.7500 0.3500 0.0000
vt 0.5000 0.3500 0.0000
vt 0.2500 0.3500 0.0000
vt 0.0000 0.3500 0.0000
vt 1.0000 0.4000 0.0000
vt 0.7500 0.4000 0.0000
vt 0.5000 0.4000 0.0000
vt 0.2500 0.4000 0.0000
vt 0.0000 0.4000 0.0000
vt 1.0000 0.4500 0.0000
vt 0.7500 0.4500 0.0000
vt 0.5000 0.4500 0.0000
vt 0.2500 0.4500 0.0000
vt 0.0000 0.4500 0.0000
vt 1.0000 0.5000 0.0000
vt 0.7500 0.5000 0.0000
vt 0.5000 0.5000 0.0000
vt 0.2500 0.5000 0.0000
vt 0.0000 0.5000 0.0000
vt 1.0000 0.5500 0.0000
vt 0.7500 0.5500 0.0000
vt 0.5000 0.5500 0.0000
vt 0.2500 0.5500 0.0000
vt 0.0000 0.5500 0.0000
vt 1.0000 0.6000 0.0000
vt 0.7500 0.6000 0.0000
vt 0.5000 0.6000 0.0000
vt 0.2500 0.6000 0.0000
vt 0.0000 0.6000 0.0000
vt 1.0000 0.6500 0.0000
vt 0.7500 0.6500 0.0000
vt 0.5000 0.6500 0.0000
vt 0.2500 0.6500 0.0000
vt 0.0000 0.6500 0.0000
vt 1.0000 0.7000 0.0000
vt 0.7500 0.7000 0.0000
vt 0.5000 0.7000 0.0000
vt 0.2500 0.7000 0.0000
vt 0.0000 0.7000 0.0000
vt 1.0000 0.7500 0.0000
vt 0.7500 0.7500 0.0000
vt 0.5000 0.7500 0.0000
vt 0.2500 0.7500 0.0000
vt 0.0000 0.7500 0.0000
vt 1.0000 0.8000 0.0000
vt 0.7500 0.8000 0.0000
vt 0.5000 0.8000 0.0000
vt 0.2500 0.8000 0.0000
vt 0.0000 0.8000 0.0000
vt 1.0000 0.8500 0.0000
vt 0.7500 0.8500 0.0000
vt 0.5000 0.8500 0.0000
vt 0.2500 0.8500 0.0000
vt 0.0000 0.8500 0.0000
vt 1.0000 0.9000 0.0000
vt 0.7500 0.9000 0.0000
vt 0.5000 0.9000 0.0000
vt 0.2500 0.9000 0.0000
vt 0.0000 0.9000 0.0000
vt 1.0000 0.9500 0.0000
vt 0.7500 0.9500 0.0000
vt 0.5000 0.9500 0.0000
vt 0.2500 0.9500 0.0000
vt 0.0000 0.9500 0.0000
vt 0.5000 1.0000 0.0000
# 101 texture coords

g Leaf
s 1
f 1/1/1 2/2/2 3/3/3 
f 3/3/3 2/2/2 4/4/4 
f 3/3/3 4/4/4 5/5/5 
f 5/5/5 4/4/4 6/6/6 
f 5/5/5 6/6/6 7/7/7 
f 7/7/7 6/6/6 8/8/8 
f 7/7/7 8/8/8 9/9/9 
f 9/9/9 8/8/8 10/10/10 
f 2/2/2 11/11/11 4/4/4 
f 4/4/4 11/11/11 12/12/12 
f 4/4/4 12/12/12 6/6/6 
f 6/6/6 12/12/12 13/13/13 
f 6/6/6 13/13/13 8/8/8 
f 8/8/8 13/13/13 14/14/14 
f 8/8/8 14/14/14 10/10/10 
f 10/10/10 14/14/14 15/15/15 
f 11/11/11 16/16/16 12/12/12 
f 12/12/12 16/16/16 17/17/17 
f 12/12/12 17/17/17 13/13/13 
f 13/13/13 17/17/17 18/18/18 
f 13/13/13 18/18/18 14/14/14 
f 14/14/14 18/18/18 19/19/19 
f 14/14/14 19/19/19 15/15/15 
f 15/15/15 19/19/19 20/20/20 
f 16/16/16 21/21/21 17/17/17 
f 17/17/17 21/21/21 22/22/22 
f 17/17/17 22/22/22 18/18/18 
f 18/18/18 22/22/22 23/23/23 
f 18/18/18 23/23/23 19/19/19 
f 19/19/19 23/23/23 24/24/24 
f 19/19/19 24/24/24 20/20/20 
f 20/20/20 24/24/24 25/25/25 
f 21/21/21 26/26/26 22/22/22 
f 22/22/22 26/26/26 27/27/27 
f 22/22/22 27/27/27 23/23/23 
f 23/23/23 27/27/27 28/28/28 
f 23/23/23 28/28/28 24/24/24 
f 24/24/24 28/28/28 29/29/29 
f 24/24/24 29/29/29 25/25/25 
f 25/25/25 29/29/29 30/30/30 
f 26/26/26 31/31/31 27/27/27 
f 27/27/27 31/31/31 32/32/32 
f 27/27/27 32/32/32 28/28/28 
f 28/28/28 32/32/32 33/33/33 
f 28/28/28 33/33/33 29/29/29 
f 29/29/29 33/33/33 34/34/34 
f 29/29/29 34/34/34 30/30/30 
f 30/30/30 34/34/34 35/35/35 
f 31/31/31 36/36/36 32/32/32 
f 32/32/32 36/36/36 37/37/37 
f 32/32/32 37/37/37 33/33/33 
f 33/33/33 37/37/37 38/38/38 
f 33/33/33 38/38/38 34/34/34 
f 34/34/34 38/38/38 39/39/39 
f 34/34/34 39/39/39 35/35/35 
f 35/35/35 39/39/39 40/40/40 
f 36/36/36 41/41/41 37/37/37 
f 37/37/37 41/41/41 42/42/42 
f 37/37/37 42/42/42 38/38/38 
f 38/38/38 42/42/42 43/43/43 
f 38/38/38 43/43/43 39/39/39 
f 39/39/39 43/43/43 44/44/44 
f 39/39/39 44/44/44 40/40/40 
f 40/40/40 44/44/44 45/45/45 
f 41/41/41 46/46/46 42/42/42 
f 42/42/42 46/46/46 47/47/47 
f 42/42/42 47/47/47 43/43/43 
f 43/43/43 47/47/47 48/48/48 
f 43/43/43 48/48/48 44/44/44 
f 44/44/44 48/48/48 49/49/49 
f 44/44/44 49/49/49 45/45/45 
f 45/45/45 49/49/49 50/50/50 
f 46/46/46 51/51/51 47/47/47 
f 47/47/47 51/51/51 52/52/52 
f 47/47/47 52/52/52 48/48/48 
f 48/48/48 52/52/52 53/53/53 
f 48/48/48 53/53/53 49/49/49 
f 49/49/49 53/53/53 54/54/54 
f 49/49/49 54/54/54 50/50/50 
f 50/50/50 54/54/54 55/55/55 
f 51/51/51 56/56/56 52/52/52 
f 52/52/52 56/56/56 57/57/57 
f 52/52/52 57/57/57 53/53/53 
f 53/53/53 57/57/57 58/58/58 
f 53/53/53 58/58/58 54/54/54 
f 54/54/54 58/58/58 59/59/59 
f 54/54/54 59/59/59 55/55/55 
f 55/55/55 59/59/59 60/60/60 
f 56/56/56 61/61/61 57/57/57 
f 57/57/57 61/61/61 62/62/62 
f 57/57/57 62/62/62 58/58/58 
f 58/58/58 62/62/62 63/63/63 
f 58/58/58 63/63/63 59/59/59 
f 59/59/59 63/63/63 64/64/64 
f 59/59/59 64/64/64 60/60/60 
f 60/60/60 64/64/64 65/65/65 
f 61/61/61 66/66/66 62/62/62 
f 62/62/62 66/66/66 67/67/67 
f 62/62/62 67/67/67 63/63/63 
f 63/63/63 67/67/67 68/68/68 
f 63/63/63 68/68/68 64/64/64 
f 64/64/64 68/68/68 69/69/69 
f 64/64/64 69/69/69 65/65/65 
f 65/65/65 69/69/69 70/70/70 
f 66/66/66 71/71/71 67/67/67 
f 67/67/67 71/71/71 72/72/72 
f 67/67/67 72/72/72 68/68/68 
f 68/68/68 72/72/72 73/73/73 
f 68/68/68 73/73/73 69/69/69 
f 69/69/69 73/73/73 74/74/74 
f 69/69/69 74/74/74 70/70/70 
f 70/70/70 74/74/74 75/75/75 
f 71/71/71 76/76/76 72/72/72 
f 72/72/72 76/76/76 77/77/77 
f 72/72/72 77/77/77 73/73/73 
f 73/73/73 77/77/77 78/78/78 
f 73/73/73 78/78/78 74/74/74 
f 74/74/74 78/78/78 79/79/79 
f 74/74/74 79/79/79 75/75/75 
f 75/75/75 79/79/79 80/80/80 
f 76/76/76 81/81/81 77/77/77 
f 77/77/77 81/81/81 82/82/82 
f 77/77/77 82/82/82 78/78/78 
f 78/78/78 82/82/82 83/83/83 
f 78/78/78 83/83/83 79/79/79 
f 79/79/79 83/83/83 84/84/84 
f 79/79/79 84/84/84 80/80/80 
f 80/80/80 84/84/84 85/85/85 
f 81/81/81 86/86/86 82/82/82 
f 82/82/82 86/86/86 87/87/87 
f 82/82/82 87/87/87 83/83/83 
f 83/83/83 87/87/87 88/88/88 
f 83/83/83 88/88/88 84/84/84 
f 84/84/84 88/88/88 89/89/89 
f 84/84/84 89/89/89 85/85/85 
f 85/85/85 89/89/89 90/90/90 
f 86/86/86 91/91/91 87/87/87 
f 87/87/87 91/91/91 92/92/92 
f 87/87/87 92/92/92 88/88/88 
f 88/88/88 92/92/92 93/93/93 
f 88/88/88 93/93/93 89/89/89 
f 89/89/89 93/93/93 94/94/94 
f 89/89/89 94/94/94 90/90/90 
f 90/90/90 94/94/94 95/95/95 
f 91/91/91 96/96/96 92/92/92 
f 92/92/92 96/96/96 97/97/97 
f 92/92/92 97/97/97 93/93/93 
f 93/93/93 97/97/97 98/98/98 
f 93/93/93 98/98/98 94/94/94 
f 94/94/94 98/98/98 99/99/99 
f 94/94/94 99/99/99 95/95/95 
f 95/95/95 99/99/99 100/100/100 
f 96/96/96 101/101/101 97/97/97 
f 97/97/97 101/101/101 98/98/98 
f 98/98/98 101/101/101 99/99/99 
f 99/99/99 101/101/101 100/100/100 
# 156 faces

